<?xml version="1.0" encoding="UTF-8" standalone="no"?>
<!-- Created with Inkscape (http://www.inkscape.org/) -->

<svg
   xmlns:dc="http://purl.org/dc/elements/1.1/"
   xmlns:cc="http://creativecommons.org/ns#"
   xmlns:rdf="http://www.w3.org/1999/02/22-rdf-syntax-ns#"
   xmlns:svg="http://www.w3.org/2000/svg"
   xmlns="http://www.w3.org/2000/svg"
   xmlns:sodipodi="http://sodipodi.sourceforge.net/DTD/sodipodi-0.dtd"
   xmlns:inkscape="http://www.inkscape.org/namespaces/inkscape"
   width="199mm"
   height="35mm"
   viewBox="0 0 705.11808 124.01566"
   id="svg3398"
   version="1.1"
   inkscape:version="0.91 r13725"
   sodipodi:docname="topsport.svg">
  <defs
     id="defs3400" />
  <sodipodi:namedview
     id="base"
     pagecolor="#ffffff"
     bordercolor="#666666"
     borderopacity="1.0"
     inkscape:pageopacity="0.0"
     inkscape:pageshadow="2"
     inkscape:zoom="0.35"
     inkscape:cx="45"
     inkscape:cy="520"
     inkscape:document-units="px"
     inkscape:current-layer="layer1"
     showgrid="false"
     inkscape:window-width="1920"
     inkscape:window-height="1017"
     inkscape:window-x="-8"
     inkscape:window-y="-8"
     inkscape:window-maximized="1"
     inkscape:showpageshadow="false"
     showborder="true" />
  <metadata
     id="metadata3403">
    <rdf:RDF>
      <cc:Work
         rdf:about="">
        <dc:format>image/svg+xml</dc:format>
        <dc:type
           rdf:resource="http://purl.org/dc/dcmitype/StillImage" />
        <dc:title></dc:title>
      </cc:Work>
    </rdf:RDF>
  </metadata>
  <g
     inkscape:label="Sluoksnis 1"
     inkscape:groupmode="layer"
     id="layer1"
     transform="translate(0,-928.34714)">
    <path
       d="m 641.94965,941.82977 -2.9512,13.9067 -10.76399,0 -4.52913,21.325 10.76275,0 -10.57288,49.83553 26.07634,0 10.57371,-49.83553 10.90796,0 4.53037,-21.325 -10.90817,0 2.94997,-13.9067 -26.07573,0 z m -71.99908,13.9067 1.50724,0 23.98987,0 -2.79554,13.32912 c 3.35163,-4.98362 8.07123,-9.00133 13.61299,-11.59022 7.35705,-3.4358 11.82248,-1.79625 18.42824,-1.79625 l -4.58197,21.38235 c -3.33014,-0.69556 -6.2111,-0.97084 -9.5785,-0.9266 -5.4459,0.0716 -10.27446,1.7389 -14.37573,5.3314 -4.10476,3.70761 -6.72724,9.15595 -8.31109,16.10849 l -6.22216,29.32224 -26.77148,0 15.09811,-71.16053 z m -69.58124,72.78273 c -25.00986,-5.876 -28.86103,-36.63202 -14.01258,-54.93431 11.75979,-14.49556 34.09371,-23.77789 52.40419,-18.65887 21.06673,5.88952 25.07029,29.29975 17.28537,46.47408 -10.07619,22.2289 -36.30001,31.6728 -55.67698,27.1191 z m 27.0476,-53.07989 c -10.90981,-4.65755 -20.77096,6.61458 -22.7153,15.6456 -1.99779,9.27949 -0.29677,17.05479 9.86708,17.84839 9.12382,0.7118 16.64347,-8.9202 18.38526,-17.26897 1.3522,-6.48513 0.38506,-13.69778 -5.53704,-16.22502 z m -98.16762,34.30509 c 9.85131,0 17.41051,-9.0468 19.34808,-18.08007 1.86487,-8.69778 -1.97688,-18.07944 -11.71227,-18.07944 -10.19849,0 -17.69276,8.68446 -19.69568,18.07944 -1.95088,9.14717 2.20856,18.08007 12.05987,18.08007 z m -101.09835,-7.9965 c 1.33358,1.275 6.9339,5.3611 9.78394,6.7215 7.58931,3.6222 16.7475,4.6928 22.42628,1.275 3.37254,-2.0297 4.18832,-7.8228 -1.07816,-9.6193 -8.65887,-2.95445 -15.39142,-2.87026 -23.13005,-8.92406 -11.07692,-8.66583 -1.61394,-25.52251 8.03603,-32.10289 15.22471,-10.38261 33.59949,-5.68636 49.24919,0.0614 l -4.39374,20.61262 c -4.18259,-3.26643 -8.51325,-5.88604 -13.56302,-7.69519 -5.68349,-2.03548 -11.75633,-3.55768 -15.71586,-1.04211 -2.24112,1.42368 -4.58852,4.50946 -2.97497,6.95314 1.75099,2.65444 15.37913,5.71646 19.15167,7.1852 10.80822,4.20982 14.0472,15.06679 9.64301,25.49709 -3.62056,8.4602 -11.66682,14.7143 -20.34904,17.1532 -5.75352,1.6166 -17.27573,2.77 -25.43239,1.1583 -6.33194,-1.2517 -11.22749,-2.7884 -16.33665,-5.2495 l 4.68376,-21.985 z m -23.34141,-68.54852 398.53745,0 -24.67007,116.23782 -272.14188,-10e-4 6.68893,-31.5228 c 5.19171,10.0923 16.89561,12.2497 27.18707,9.499 15.4668,-4.1367 28.29144,-15.7421 32.98299,-31.81493 6.59963,-22.61328 -6.55539,-40.61655 -26.12161,-41.89788 -7.13543,-0.46678 -14.23891,2.27 -23.59088,11.88864 l 2.06046,-9.85153 -24.80135,0 -19.87692,93.7007 -134.59483,0 6.13388,-28.7785 8.60725,0 c 12.95287,0 19.89373,-1.9588 21.5083,-2.3554 6.52466,-1.6041 12.11905,-4.1883 17.05291,-7.3316 11.57752,-7.3786 18.28958,-21.31209 20.99276,-34.25861 1.84235,-8.72727 2.53196,-18.33259 -0.47373,-26.8909 -2.67697,-7.62249 -8.2605,-13.19209 -15.48073,-16.62278"
       style="fill:#2350a9;fill-opacity:1;fill-rule:evenodd;stroke:none"
       id="path3374"
       inkscape:connector-curvature="0" />
    <path
       d="m 165.39598,991.55578 c -1.43044,6.36021 -4.1836,11.51302 -8.2652,15.48892 -4.39334,4.2836 -9.7016,6.4247 -15.95611,6.4247 -5.81867,0 -10.14052,-1.9838 -12.94078,-5.9569 -1.8022,-2.5389 -2.69623,-5.7165 -2.69623,-9.53015 0,-2.168 0.238,-4.31264 0.7101,-6.42657 1.43291,-6.35385 4.17951,-11.5433 8.25825,-15.56428 4.49902,-4.39211 9.84722,-6.59206 16.04029,-6.59206 5.87273,0 10.17021,2.04142 12.86869,6.11298 1.79051,2.70318 2.70154,5.87663 2.70154,9.53201 0,2.17373 -0.24209,4.34233 -0.72055,6.51135 z M 91.935707,969.8656 c -1.47182,2.65629 -3.4905,6.64204 -4.50989,9.22089 -3.44871,8.7918 -5.16446,17.62783 -5.16446,26.52691 0,3.5411 0.29493,6.8282 0.86739,9.8456 1.37782,7.3038 4.37184,13.7599 8.98412,19.3735 9.625413,11.8057 23.230813,17.7038 40.809903,17.7038 17.7286,0 33.74819,-5.8215 48.03525,-17.4726 14.29053,-11.6338 23.31622,-26.142 27.07626,-43.50792 1.00668,-4.65345 1.51524,-9.2086 1.51524,-13.65538 0,-11.64368 -3.31641,-21.59883 -9.93139,-29.85666 -9.37532,-11.64696 -22.97152,-17.46971 -40.82342,-17.46971 -8.72666,0 -17.19341,1.50254 -25.40004,4.52155 -17.1975,6.30161 -30.57291,17.12909 -40.091603,32.47628 -0.49177,0.78833 -0.91575,1.51585 -1.36736,2.29374 z m -4.12852,1.39298 8.07473,-38.06043 -88.3005269,0 -8.07123696,38.03134 23.24023586,0 -16.5967739,78.20891 41.7569709,0 16.595332,-78.20891 23.301269,0.0287 z M 309.96644,943.36366 c -6.72558,-6.78009 -18.84239,-10.16551 -36.36453,-10.16551 l -49.94414,0 -24.66802,116.24025 41.84627,0 7.31138,-34.3034 13.06264,0 c 15.09403,0 26.91876,-2.9099 35.50102,-8.733 9.47507,-6.3576 15.69558,-16.61994 18.65888,-30.81112 0.95199,-4.49493 1.42943,-8.75289 1.42943,-12.7798 0,-8.41739 -2.27942,-14.90437 -6.83293,-19.44742 z m -34.37883,31.90852 c -1.53633,6.41489 -6.32313,9.60922 -14.37757,9.60922 l -6.50542,0 4.12953,-19.37022 6.50152,0 c 6.99145,0 10.48523,2.4908 10.48523,7.46008 0,0.84937 -0.0703,1.61989 -0.23329,2.30092"
       style="fill:#ed1c24;fill-opacity:1;fill-rule:nonzero;stroke:none"
       id="path3376"
       inkscape:connector-curvature="0" />
  </g>
</svg>
