<?xml version="1.0" encoding="iso-8859-1"?>
<!-- Generator: Adobe Illustrator 19.0.0, SVG Export Plug-In . SVG Version: 6.00 Build 0)  -->
<svg version="1.1" id="Layer_1" xmlns="http://www.w3.org/2000/svg" xmlns:xlink="http://www.w3.org/1999/xlink" x="0px" y="0px"
	 viewBox="0 0 511.999 511.999" style="enable-background:new 0 0 511.999 511.999;" xml:space="preserve">
<g>
	<g>
		<g>
			<path d="M236.291,249.119c-2.117-0.428-4.306-0.65-6.546-0.65c-18.637,0-33.784,15.155-33.784,33.787
				c0,18.632,15.148,33.784,33.784,33.784c18.632,0,33.787-15.153,33.787-33.784c0-2.24-0.23-4.426-0.64-6.543l-22.943,17.876
				c-2.673,2.089-6.026,3.249-9.441,3.249c-4.091,0-7.951-1.6-10.849-4.495c-5.466-5.473-6.001-14.205-1.242-20.296L236.291,249.119
				z"/>
			<path d="M385.078,200.262c12.982,24.492,20.342,52.393,20.342,81.992c0,96.878-78.794,175.683-175.675,175.683
				c-96.87,0-175.683-78.804-175.683-175.683c0-96.873,78.812-175.685,175.683-175.685c29.601,0,57.51,7.37,82.01,20.355
				c14.991-10.796,32.338-21.297,51.773-31.319c-37.704-27.105-83.904-43.092-133.783-43.092C103.063,52.511,0,155.58,0,282.254
				c0,126.682,103.063,229.745,229.745,229.745c126.671,0,229.742-103.063,229.742-229.745c0-49.879-15.99-96.084-43.098-133.793
				C406.4,167.832,395.894,185.219,385.078,200.262z"/>
			<path d="M250.125,198.575c4.076-12.321,11.786-24.824,22.725-37.256c-13.476-4.81-27.988-7.452-43.105-7.45
				c-70.794,0-128.389,57.592-128.389,128.384c0,70.789,57.595,128.389,128.389,128.389c70.787,0,128.384-57.6,128.384-128.389
				c0-15.109-2.634-29.609-7.439-43.092c-16.62,14.615-33.155,23.247-48.755,25.428c1.393,5.668,2.138,11.584,2.138,17.664
				c0,40.986-33.344,74.327-74.327,74.327c-40.986,0-74.332-33.341-74.332-74.327c0-40.98,33.349-74.332,74.332-74.332
				c6.085,0,11.988,0.75,17.659,2.143C247.939,206.309,248.84,202.474,250.125,198.575z"/>
			<path d="M468.762,43.237c24.53-24.52-14.344-60.042-40.131-34.263c-17.096,17.101-12.301,53.962-8.812,71.439l-8.804,8.806
				c-123.827,51.965-164.485,113.38-145.449,145.526l-35.909,46.075c-0.33,0.427-0.299,1.039,0.09,1.436
				c0.389,0.394,1.009,0.422,1.444,0.084l46.07-35.896c32.131,19.029,93.55-21.622,145.521-145.457l8.801-8.809
				c17.477,3.494,54.341,8.289,71.445-8.817C528.804,57.583,493.292,18.717,468.762,43.237z"/>
		</g>
	</g>
</g>
<g>
</g>
<g>
</g>
<g>
</g>
<g>
</g>
<g>
</g>
<g>
</g>
<g>
</g>
<g>
</g>
<g>
</g>
<g>
</g>
<g>
</g>
<g>
</g>
<g>
</g>
<g>
</g>
<g>
</g>
</svg>
