<?xml version="1.0" encoding="utf-8"?>
<!-- Generator: Adobe Illustrator 21.1.0, SVG Export Plug-In . SVG Version: 6.00 Build 0)  -->
<svg version="1.1" id="Layer_1" xmlns="http://www.w3.org/2000/svg" xmlns:xlink="http://www.w3.org/1999/xlink" x="0px" y="0px"
	 viewBox="0 0 50 50" style="enable-background:new 0 0 50 50;" xml:space="preserve">
<path d="M0.6,34.9c-0.1,0.1-0.1,0.2-0.2,0.3c0.1,0,0.2,0,0.3,0c2.3,0,4.6,0,6.8,0c0.2,0,0.3-0.1,0.4-0.2c1.2-1.8,2.5-3.5,3.7-5.3
	c0.1-0.1,0.2-0.2,0.3-0.2c1.6,0,3.2,0,4.8,0c0.1,0,0.2,0,0.3-0.1c1.2-1.7,2.4-3.4,3.5-5.1c0,0,0.1-0.1,0.1-0.2c-1.7,0-3.4,0-5.2,0
	c0-0.1,0-0.1,0.1-0.1c0.8-1.2,1.6-2.3,2.4-3.5c0.1-0.1,0.2-0.1,0.3-0.1c1.3,0,2.5-0.3,3.6-0.7c2.5-0.9,4.5-2.6,6.4-4.5
	c-4.7,0-9.3,0-14,0c0,0.1-0.1,0.1-0.1,0.2C9.6,22,5.1,28.5,0.6,34.9z"/>
<path d="M44.4,15.8c-1.9-0.1-3.9-0.2-5.8-0.2c-1.3-0.1-2.5-0.1-3.8-0.1c-0.1,0-0.3,0-0.4,0c-0.1,0-0.2,0-0.3,0
	c0,0.1-0.1,0.1-0.1,0.2c-3.2,4.6-6.5,9.2-9.7,13.9c0,0.1-0.1,0.1-0.1,0.2c5.8-0.3,11.6-0.5,17.3-0.8c0,0,0,0,0,0
	c-5-0.2-9.9-0.4-14.9-0.6c0,0,0-0.1,0-0.1c5.3-0.2,10.6-0.5,15.9-0.7c0,0,0,0,0,0c-5-0.2-9.9-0.4-14.9-0.6c0,0,0-0.1,0-0.1
	c5.3-0.2,10.6-0.5,15.8-0.7c0,0,0,0,0,0c-5-0.2-9.9-0.4-14.9-0.6c0,0,0-0.1,0-0.1c5.3-0.2,10.6-0.5,15.9-0.7c0,0,0,0,0,0
	c-5-0.2-9.9-0.4-14.9-0.6c0,0,0,0,0-0.1c5.3-0.2,10.6-0.5,15.9-0.7c0,0,0,0,0,0c-5-0.2-9.9-0.4-14.9-0.6c0,0,0,0,0-0.1
	c5.2-0.2,10.5-0.5,15.7-0.7c0,0,0,0,0,0c-4.9-0.2-9.8-0.4-14.8-0.6c0,0,0,0,0-0.1c5.3-0.2,10.6-0.5,15.9-0.7c0,0,0,0,0,0
	c-5-0.2-9.9-0.4-14.9-0.6c0,0,0,0,0-0.1c5.3-0.2,10.6-0.5,15.9-0.7c0,0,0,0,0,0c-5-0.2-9.9-0.4-14.9-0.6c0,0,0-0.1,0-0.1
	c5.3-0.2,10.5-0.5,15.8-0.7c0,0,0,0,0,0c-4.9-0.2-9.9-0.4-14.8-0.6c0,0,0,0,0-0.1c0.1,0,0.1,0,0.2,0c1.3-0.1,2.6-0.1,4-0.2
	c1.8-0.1,3.5-0.2,5.3-0.2c1.1,0,2.2-0.1,3.3-0.2c1.1,0,2.2-0.1,3.2-0.1c0,0,0,0,0,0c-0.8,0-1.7-0.1-2.5-0.1
	C46.8,15.9,45.6,15.8,44.4,15.8z"/>
<path d="M40.5,30.2c-0.2-0.1-0.3-0.1-0.5-0.1c-1.2-0.1-2.4-0.2-3.6-0.2c-1-0.1-1.9-0.1-2.9-0.2c-1.2-0.1-2.4-0.2-3.6-0.2
	c-0.2,0-0.3,0-0.4,0.2c-1.2,1.7-2.4,3.5-3.6,5.2c-0.1,0.1-0.2,0.2-0.3,0.4c4-0.3,7.9-0.5,11.9-0.7c0,0,0,0,0,0
	c-3.2-0.2-6.3-0.4-9.5-0.6c0,0,0,0,0-0.1c3.5-0.2,7-0.5,10.5-0.7c0,0,0,0,0,0c-3.1-0.2-6.3-0.4-9.4-0.6c0,0,0-0.1,0-0.1
	c3.5-0.2,7-0.5,10.4-0.7c0,0,0,0,0,0c-3.1-0.2-6.3-0.4-9.4-0.6c0,0,0-0.1,0-0.1C33.6,30.6,37,30.4,40.5,30.2z"/>
</svg>
