<svg xmlns="http://www.w3.org/2000/svg" viewBox="0 0 50 50" enable-background="new 0 0 50 50" width="50" height="50">
    <path d="M 3 0 C 2.4 0 2 0.4 2 1 L 2 49 C 2 49.6 2.4 50 3 50 L 7 50 C 7.6 50 8 49.6 8 49 L 8 32 L 47 32 A 1.0001 1.0001 0 0 0 48 31 L 48 1 A 1.0001 1.0001 0 0 0 47 0 L 7 0 L 3 0 z M 8 2 L 17 2 L 17 11 L 27 11 L 27 2 L 37 2 L 37 11 L 46 11 L 46 21 L 37 21 L 37 30 L 27 30 L 27 21 L 17 21 L 17 30 L 8 30 L 8 21 L 17 21 L 17 11 L 8 11 L 8 2 z M 27 21 L 37 21 L 37 11 L 27 11 L 27 21 z"/>
</svg>