<svg xmlns="http://www.w3.org/2000/svg" viewBox="0 0 50 50" width="50" height="50">
    <path style="line-height:normal;text-indent:0;text-align:start;text-decoration-line:none;text-decoration-style:solid;text-decoration-color:#000;text-transform:none;block-progression:tb;isolation:auto;mix-blend-mode:normal"
          d="M 10.042969 2.9902344 A 1.0001 1.0001 0 0 0 9.2675781 3.3203125 C 9.2675781 3.3203125 5 7.9670488 5 16 A 1.0001 1.0001 0 1 0 7 16 C 7 8.6609512 10.732422 4.6796875 10.732422 4.6796875 A 1.0001 1.0001 0 0 0 10.042969 2.9902344 z M 26 3 A 5 5 0 0 0 21 8 A 5 5 0 0 0 21.029297 8.5 A 1.0001 1.0001 0 0 0 20.662109 8.6699219 L 6.4082031 18.964844 A 1.0001546 1.0001546 0 0 0 6.2382812 19.125 C 6.2174958 19.143045 6.1918027 19.15002 6.171875 19.169922 A 1.0001 1.0001 0 0 0 6.1699219 19.169922 C 4.6160118 20.723832 4.6160118 23.274215 6.1699219 24.828125 C 7.7238319 26.382035 10.274215 26.382035 11.828125 24.828125 C 12.104673 24.551577 12.17049 24.189872 12.166016 23.960938 C 12.161516 23.732003 12.111976 23.571028 12.058594 23.421875 C 11.951816 23.12357 11.803706 22.869062 11.623047 22.589844 C 11.261728 22.031407 10.762865 21.414603 10.214844 20.830078 C 9.7938584 20.381051 9.3512839 19.979392 8.90625 19.628906 L 21.638672 10.431641 A 5 5 0 0 0 26 13 A 5 5 0 0 0 31 8 A 5 5 0 0 0 26 3 z M 16.052734 3.9921875 A 1.0001 1.0001 0 0 0 15.423828 4.1835938 C 15.423828 4.1835938 12 6.6036689 12 11 A 1.0001 1.0001 0 1 0 14 11 C 14 7.6343311 16.576172 5.8164064 16.576172 5.8164062 A 1.0001 1.0001 0 0 0 16.052734 3.9921875 z M 32.857422 6.6171875 C 33.114422 7.8891875 33.016344 9.2378125 32.527344 10.507812 L 34.302734 11.460938 L 28.353516 14.193359 L 28.351562 14.199219 A 3.5 3.5 0 0 0 26 17.5 A 3.5 3.5 0 0 0 26.199219 18.652344 L 26.197266 18.65625 L 30.15625 33.904297 L 25.339844 43.234375 L 25.345703 43.238281 A 2.5 2.5 0 0 0 25 44.5 A 2.5 2.5 0 0 0 27.5 47 A 2.5 2.5 0 0 0 29.808594 45.457031 L 34.933594 35.166016 L 36.099609 26.199219 C 36.299609 24.599219 36.199219 23.000391 35.699219 21.400391 L 34.199219 15.599609 L 38.822266 13.835938 L 38.824219 13.820312 A 2 2 0 0 0 40 12 A 2 2 0 0 0 39.123047 10.345703 L 39.123047 10.337891 L 32.857422 6.6171875 z M 7.4140625 20.994141 C 7.7814918 21.247875 8.2881564 21.698409 8.7558594 22.197266 C 9.2185707 22.690798 9.6397785 23.223363 9.90625 23.626953 C 9.1472103 24.042306 8.234124 24.06225 7.5859375 23.414062 C 6.9099341 22.738059 6.9332848 21.767081 7.4140625 20.994141 z M 37.894531 27.900391 L 36.873047 35.757812 L 36.128906 37.253906 L 39.097656 45.169922 L 39.101562 45.167969 C 39.394562 46.221969 40.352 47 41.5 47 C 42.881 47 44 45.881 44 44.5 C 44 44.133 43.915437 43.786656 43.773438 43.472656 L 43.78125 43.46875 L 37.894531 27.900391 z"
          font-weight="400" font-family="sans-serif" white-space="normal" overflow="visible"/>
</svg>
