<svg xmlns="http://www.w3.org/2000/svg" viewBox="0 0 50 50" width="50" height="50">
    <path d="M 43.150391 2 C 42.704391 2 42.312453 2.2956094 42.189453 2.7246094 L 35.439453 26.222656 C 34.268453 30.275656 30.636391 33 26.400391 33 L 9.5 33 C 5.364 33 2 36.364 2 40.5 C 2 44.636 5.364 48 9.5 48 L 23.900391 48 C 30.622391 48 36.433328 43.612219 38.361328 37.074219 L 47.931641 3.2714844 C 48.016641 2.9704844 47.954625 2.6464844 47.765625 2.3964844 C 47.576625 2.1464844 47.28175 2 46.96875 2 L 43.150391 2 z M 15 7 A 13 5.5 0 0 0 2 12.5 A 13 5.5 0 0 0 15 18 A 13 5.5 0 0 0 28 12.5 A 13 5.5 0 0 0 15 7 z M 2 16.4375 L 2 20.5 C 2 23.538 7.82 26 15 26 C 22.18 26 28 23.538 28 20.5 L 28 16.4375 C 25.265 18.7875 20.112 20 15 20 C 9.888 20 4.735 18.7875 2 16.4375 z M 10 35 L 26 35 L 26 46 L 10 46 L 10 35 z"/>
</svg>