<svg xmlns="http://www.w3.org/2000/svg" viewBox="0 0 50 50" width="50" height="50">
    <path d="M 22.5 13 C 22.01 13 21.555922 13.146625 21.169922 13.390625 L 21.160156 13.388672 L 9.4277344 19.242188 L 9.4296875 19.248047 C 8.5866875 19.650047 8 20.502047 8 21.498047 C 8 22.881047 9.118 24 10.5 24 C 10.917 24 11.304391 23.888031 11.650391 23.707031 L 11.65625 23.716797 L 21.583984 19.042969 L 24.792969 24.25 L 8.8320312 33.96875 C 4.1807185 32.575706 1.6777344 30.263672 1.6777344 30.263672 A 1.0001 1.0001 0 0 0 0.94726562 29.992188 A 1.0001 1.0001 0 0 0 0.32226562 31.736328 C 0.32226562 31.736328 6.0865072 37 16 37 C 20.921897 37 24.387992 35.954921 27.369141 34.947266 C 30.35029 33.93961 32.813535 33 36 33 C 42.372931 33 48.458984 36.841797 48.458984 36.841797 A 1.00066 1.00066 0 0 0 49.541016 35.158203 C 49.541016 35.158203 43.161069 31 36 31 C 35.241597 31 34.52593 31.0562 33.832031 31.140625 C 33.939549 30.778721 34 30.395499 34 29.998047 C 34 29.214047 33.765 28.486141 33.375 27.869141 L 33.380859 27.861328 L 24.578125 14.113281 C 24.130125 13.442281 23.367 13 22.5 13 z M 40 18 C 37.237 18 35 20.238047 35 22.998047 C 35 25.763047 37.237 28 40 28 C 42.76 28 45 25.763047 45 22.998047 C 45 20.238047 42.76 18 40 18 z"/>
</svg>