<?xml version="1.0" encoding="iso-8859-1"?>
<!-- Generator: Adobe Illustrator 19.0.0, SVG Export Plug-In . SVG Version: 6.00 Build 0)  -->
<svg version="1.1" id="Layer_1" xmlns="http://www.w3.org/2000/svg" xmlns:xlink="http://www.w3.org/1999/xlink" x="0px" y="0px"
	 viewBox="0 0 512 512" style="enable-background:new 0 0 512 512;" xml:space="preserve">
<g>
	<g>
		<g>
			<path d="M391.821,284.421c-5.384-4.641-11.942-7.442-18.747-8.466L263.66,254.781l31.652,21.005l-49.974,156.659l-28.142-116.369
				l25.218-36.358l-25.221-9.037l-25.226,9.037l25.226,36.362l0.002-0.003l-28.149,116.368l-49.961-156.657l31.647-21.005
				L61.309,275.958c-6.799,1.021-13.366,3.825-18.742,8.466c-5.345,4.669-8.737,10.447-10.127,16.571L0,443.482l61.187,21.243
				c20.331,21.112,77.194,36.649,145.4,38.126h10.606h10.598c68.214-1.475,125.076-17.014,145.398-38.126l61.197-21.243
				l-32.443-142.49C400.553,294.868,397.161,289.093,391.821,284.421z"/>
			<path d="M133.609,182.031c19.1,47.56,56.671,84.278,83.584,84.278c26.9,0,64.476-36.721,83.574-84.278
				c5.199-4.05,11.315-11.786,14.787-21.028c6.894-18.394,2.291-26.977-4.723-30.635c0-64.671-26.609-115.354-93.637-115.354
				c-67.036,0-93.642,50.683-93.642,115.354c-7.009,3.661-11.61,12.242-4.731,30.636
				C122.296,170.243,128.42,177.981,133.609,182.031z"/>
			<path d="M377.211,113.536v-8.614h-49.723c0.32,2.826,0.591,5.688,0.806,8.614H377.211z"/>
			<path d="M477.763,75.226H321.569c0.84,2.803,1.572,5.693,2.268,8.62h153.925V75.226z"/>
			<path d="M506.115,15.04c-3.927-3.922-9.075-5.891-14.223-5.891H270.569c9.818,5.158,18.522,11.894,26.007,20.111h195.315v140.774
				h-53.824l-40.742,40.747v-40.747h-65.943c-3.167,7.427-7.69,14.451-12.905,20.116h58.734v55.311c0,2.248,1.334,4.388,3.543,5.307
				c2.214,0.919,4.669,0.353,6.264-1.247l59.379-59.374h45.494c5.148,0,10.294-1.969,14.223-5.896
				c3.927-3.927,5.885-9.073,5.885-14.221V29.261C512,24.113,510.042,18.972,506.115,15.04z"/>
			<path d="M477.763,45.542H308.641c1.669,2.767,3.249,5.635,4.721,8.62h164.401V45.542z"/>
		</g>
	</g>
</g>
<g>
</g>
<g>
</g>
<g>
</g>
<g>
</g>
<g>
</g>
<g>
</g>
<g>
</g>
<g>
</g>
<g>
</g>
<g>
</g>
<g>
</g>
<g>
</g>
<g>
</g>
<g>
</g>
<g>
</g>
</svg>
