<svg xmlns="http://www.w3.org/2000/svg" width="50" height="50" viewBox="0 0 50 50">
    <path d="M 17 0 C 14.790861 0 13 1.790861 13 4 C 13 6.209139 14.790861 8 17 8 C 19.209139 8 21 6.209139 21 4 C 21 1.790861 19.209139 9.9412756e-17 17 0 z M 33.5 4 C 31 4 29 6 29 8.5 C 29 11 31 13 33.5 13 C 36 13 38 11 38 8.5 C 38 6 36 4 33.5 4 z M 11.15625 6.03125 C 9.9523193 6.060791 9.4375 7.39375 10.8125 8.90625 C 11.4125 9.60625 14.79375 13.29375 16.09375 14.59375 C 16.49375 14.99375 16.8125 15.30625 17.3125 15.40625 L 22 16.1875 L 14.40625 28 C 14.40625 28 11.8125 31.69375 10.3125 34.59375 C 9.3125 36.49375 11.4 38 13.5 36 C 14.9 34.7 21.6875 27.8125 21.6875 27.8125 C 21.6875 27.8125 13.2875 45.26775 12.6875 46.46875 C 12.1875 47.46875 11.19375 49.175 13.09375 49.875 C 14.79375 50.575 16.28125 47.96875 16.28125 47.96875 L 32.84375 21.59375 C 32.84375 21.59375 35.93225 24.1875 36.53125 24.6875 C 37.23125 25.1875 37.0375 25.58125 36.9375 26.28125 C 36.7375 26.98125 35.98125 28.825 35.78125 29.625 C 35.58125 30.325 35.64025 31.51525 36.90625 31.90625 C 38.17225 32.29725 38.79375 31.10625 39.09375 30.40625 C 39.29375 29.90625 40.30525 27.5865 40.90625 25.6875 C 41.00525 24.9875 41.09375 24.10625 40.59375 23.40625 L 35.1875 16.59375 C 34.8875 16.29375 34.5865 16.0125 34.1875 15.8125 C 32.5875 15.0125 28.8875 13 27.6875 12.5 C 26.1875 11.8 24.5 11.6875 24.5 11.6875 L 18.1875 11.1875 C 18.1875 11.1875 14.29375 7.80625 13.09375 6.90625 C 12.375 6.28125 11.703491 6.0178223 11.15625 6.03125 z"/>
</svg>