<svg xmlns="http://www.w3.org/2000/svg" viewBox="0 0 50 50" width="50" height="50">
    <path d="M44.311,5.69C42.576,3.955,39.417,3,35.416,3c-6.308,0-15.59,2.542-22.726,9.677C2.036,23.334,0.839,39.435,5.701,44.298 C7.443,46.04,10.605,47,14.606,47c6.297,0,15.572-2.545,22.716-9.689c6.448-6.446,8.556-13.966,9.239-17.875 C47.616,13.4,46.754,8.134,44.311,5.69z M32.5,26c-0.828,0-1.5-0.672-1.5-1.5c0-0.027,0.006-0.052,0.008-0.078L29,22.414L26.414,25 l2.008,2.008C28.448,27.006,28.473,27,28.5,27c0.828,0,1.5,0.672,1.5,1.5S29.328,30,28.5,30S27,29.328,27,28.5 c0-0.027,0.006-0.052,0.008-0.078L25,26.414L22.414,29l2.008,2.008C24.448,31.006,24.473,31,24.5,31c0.828,0,1.5,0.672,1.5,1.5 S25.328,34,24.5,34S23,33.328,23,32.5c0-0.027,0.006-0.052,0.008-0.078L21,30.414l-2.293,2.293C18.512,32.902,18.256,33,18,33 s-0.512-0.098-0.707-0.293c-0.391-0.391-0.391-1.023,0-1.414L19.586,29l-2.008-2.008C17.552,26.994,17.527,27,17.5,27 c-0.828,0-1.5-0.672-1.5-1.5s0.672-1.5,1.5-1.5s1.5,0.672,1.5,1.5c0,0.027-0.006,0.052-0.008,0.078L21,27.586L23.586,25 l-2.008-2.008C21.552,22.994,21.527,23,21.5,23c-0.828,0-1.5-0.672-1.5-1.5s0.672-1.5,1.5-1.5s1.5,0.672,1.5,1.5 c0,0.027-0.006,0.052-0.008,0.078L25,23.586L27.586,21l-2.008-2.008C25.552,18.994,25.527,19,25.5,19c-0.828,0-1.5-0.672-1.5-1.5 s0.672-1.5,1.5-1.5s1.5,0.672,1.5,1.5c0,0.027-0.006,0.052-0.008,0.078L29,19.586l2.293-2.293c0.391-0.391,1.023-0.391,1.414,0 s0.391,1.023,0,1.414L30.414,21l2.008,2.008C32.448,23.006,32.473,23,32.5,23c0.828,0,1.5,0.672,1.5,1.5S33.328,26,32.5,26z"/>
</svg>