<svg xmlns="http://www.w3.org/2000/svg" viewBox="0 0 50 50" width="50" height="50">
    <path d="M44.953,6.461l-7.246,7.246C37.512,13.902,37.256,14,37,14s-0.512-0.098-0.707-0.293c-0.391-0.391-0.391-1.023,0-1.414 l7.25-7.25C41.719,3.721,38.885,3,35.416,3c-6.308,0-15.59,2.542-22.726,9.677C2.539,22.831,0.978,37.919,5.058,43.528l7.235-7.235 c0.391-0.391,1.023-0.391,1.414,0s0.391,1.023,0,1.414l-7.238,7.238C8.297,46.275,11.134,47,14.606,47 c6.297,0,15.572-2.545,22.716-9.689c6.448-6.446,8.556-13.966,9.239-17.875C47.517,13.968,46.894,9.139,44.953,6.461z M34.707,24.707C34.512,24.902,34.256,25,34,25s-0.512-0.098-0.707-0.293l-2.781-2.781C30.347,21.969,30.178,22,30,22 s-0.347-0.031-0.512-0.074l-2.563,2.563C26.969,24.653,27,24.822,27,25s-0.031,0.347-0.074,0.512l2.781,2.781 c0.391,0.391,0.391,1.023,0,1.414C29.512,29.902,29.256,30,29,30s-0.512-0.098-0.707-0.293l-2.781-2.781 C25.347,26.969,25.178,27,25,27s-0.347-0.031-0.512-0.074l-2.563,2.563C21.969,29.653,22,29.822,22,30s-0.031,0.347-0.074,0.512 l2.781,2.781c0.391,0.391,0.391,1.023,0,1.414C24.512,34.902,24.256,35,24,35s-0.512-0.098-0.707-0.293l-2.781-2.781 C20.347,31.969,20.178,32,20,32s-0.347-0.031-0.512-0.074l-1.781,1.781C17.512,33.902,17.256,34,17,34s-0.512-0.098-0.707-0.293 c-0.391-0.391-0.391-1.023,0-1.414l1.781-1.781C18.031,30.347,18,30.178,18,30s0.031-0.347,0.074-0.512l-2.781-2.781 c-0.391-0.391-0.391-1.023,0-1.414s1.023-0.391,1.414,0l2.781,2.781C19.653,28.031,19.822,28,20,28s0.347,0.031,0.512,0.074 l2.563-2.563C23.031,25.347,23,25.178,23,25s0.031-0.347,0.074-0.512l-2.781-2.781c-0.391-0.391-0.391-1.023,0-1.414 s1.023-0.391,1.414,0l2.781,2.781C24.653,23.031,24.822,23,25,23s0.347,0.031,0.512,0.074l2.563-2.563 C28.031,20.347,28,20.178,28,20s0.031-0.347,0.074-0.512l-2.781-2.781c-0.391-0.391-0.391-1.023,0-1.414s1.023-0.391,1.414,0 l2.781,2.781C29.653,18.031,29.822,18,30,18s0.347,0.031,0.512,0.074l1.781-1.781c0.391-0.391,1.023-0.391,1.414,0 s0.391,1.023,0,1.414l-1.781,1.781C31.969,19.653,32,19.822,32,20s-0.031,0.347-0.074,0.512l2.781,2.781 C35.098,23.684,35.098,24.316,34.707,24.707z"/>
</svg>