<svg xmlns="http://www.w3.org/2000/svg" viewBox="0 0 50 50" width="50" height="50">
    <path style="line-height:normal;text-indent:0;text-align:start;text-decoration-line:none;text-decoration-style:solid;text-decoration-color:#000;text-transform:none;block-progression:tb;isolation:auto;mix-blend-mode:normal"
          d="M 21 2 C 18.161 2 13.013859 2.8694375 12.130859 6.0234375 C 8.2008594 6.2314375 4 7.878 4 12 L 4 18.199219 C 4 20.888219 3.5626094 22.7955 3.0996094 24.8125 C 2.5586094 27.1695 2 29.607 2 33.5 C 2 34.786424 2.6400645 36.367308 4 37.503906 L 4 39.001953 C 2.7647307 39.924381 2 41.381964 2 43 C 2 45.757 4.243 48 7 48 C 9.757 48 12 45.757 12 43 L 14 43 C 14 45.757 16.243 48 19 48 C 21.757 48 24 45.757 24 43 L 26 43 C 26 45.757 28.243 48 31 48 C 33.757 48 36 45.757 36 43 L 38 43 C 38 45.757 40.243 48 43 48 C 45.757 48 48 45.757 48 43 C 48 40.982624 46.810941 39.217713 45 38.429688 L 45 38.279297 C 46.88341 37.652471 48 36.899155 48 36.099609 C 48 28.837609 43.954781 25 36.300781 25 C 35.867781 25 35.253875 24.848266 34.546875 24.572266 C 34.275875 24.836266 33.908 25 33.5 25 C 32.672 25 32 24.328 32 23.5 C 32 23.418 32.010438 23.337766 32.023438 23.259766 C 31.023438 22.617766 30.008703 21.809953 29.095703 20.876953 C 28.912703 20.955953 28.712 21 28.5 21 C 27.672 21 27 20.328 27 19.5 C 27 19.164 27.113781 18.857422 27.300781 18.607422 C 26.800781 17.785422 26.431844 16.899703 26.214844 15.970703 C 25.522844 15.837703 25 15.231 25 14.5 C 25 13.848 25.419 13.297797 26 13.091797 L 26 9.9082031 C 25.419 9.7012031 25 9.152 25 8.5 C 25 7.848 25.419 7.2977969 26 7.0917969 L 26 5.5 C 26 3.886 24.69 2 21 2 z M 6 38.603516 C 6.7293371 38.849843 7.5562997 39 8.5 39 C 12.258 39 15.557781 39.231516 19.050781 39.478516 C 22.710781 39.734516 26.496 40 31 40 C 35.63092 40 39.897917 39.547136 43 38.830078 L 43 40 C 43 40.554545 42.554545 41 42 41 L 7 41 C 6.8256271 41 6.6696864 40.944818 6.5273438 40.867188 L 6 39.470703 L 6 38.603516 z M 44.472656 41.685547 C 44.795 42.042729 45 42.50469 45 43 C 45 44.067 44.067 45 43 45 C 41.933 45 41 44.067 41 43 L 42 43 C 43.021994 43 43.929956 42.475776 44.472656 41.685547 z M 5.1289062 42.320312 C 5.644801 42.738211 6.2909856 43 7 43 L 9 43 C 9 44.067 8.067 45 7 45 C 5.933 45 5 44.067 5 43 C 5 42.764145 5.0462943 42.534298 5.1289062 42.320312 z M 17 43 L 21 43 C 21 44.067 20.067 45 19 45 C 17.933 45 17 44.067 17 43 z M 29 43 L 33 43 C 33 44.067 32.067 45 31 45 C 29.933 45 29 44.067 29 43 z"
          font-weight="400" font-family="sans-serif" white-space="normal" overflow="visible"/>
</svg>
