<?xml version="1.0" encoding="iso-8859-1"?>
<!-- Generator: Adobe Illustrator 19.0.0, SVG Export Plug-In . SVG Version: 6.00 Build 0)  -->
<svg version="1.1" id="Layer_1" xmlns="http://www.w3.org/2000/svg" xmlns:xlink="http://www.w3.org/1999/xlink" x="0px" y="0px"
	 viewBox="0 0 511.998 511.998" style="enable-background:new 0 0 511.998 511.998;" xml:space="preserve">
<g>
	<g>
		<path d="M510.354,342.215l-10.392-22.476c-11.261-24.39-40.109-35.01-64.512-23.742l-57.238,26.46l-59.356-60.824l120.327-123.3
			c8.568-8.78,5.863-23.416-5.265-28.558l-52.394-24.217c-6.836-3.159-14.924-1.67-20.185,3.721L255.998,197.22L150.662,89.279
			c-5.261-5.391-13.35-6.881-20.185-3.721l-52.394,24.217c-11.139,5.148-13.826,19.786-5.265,28.558L193.14,261.632l-59.354,60.827
			l-57.237-26.457h-0.001c-24.383-11.271-53.24-0.658-64.508,23.725L1.644,342.215c-4.118,8.906-0.235,19.481,8.678,23.601
			c4.044,1.869,127.966,59.149,131.155,60.624c6.838,3.161,14.925,1.669,20.186-3.721l94.341-96.669l94.336,96.669
			c5.262,5.391,13.35,6.881,20.186,3.721c7.552-3.491,126.024-58.251,131.15-60.62C510.58,361.701,514.474,351.128,510.354,342.215z
			 M144.989,388.884l-18.152-8.39l91.145-93.408c2.965,3.038,10.212,10.467,13.174,13.503L144.989,388.884z M280.846,222.675
			l97.164-99.567l18.152,8.39L294.016,236.17L280.846,222.675z M419.405,364.667l-14.847-15.214l45.805-21.174
			c6.533-3.017,14.281-0.2,17.315,6.373l2.934,6.345L419.405,364.667z"/>
	</g>
</g>
<g>
</g>
<g>
</g>
<g>
</g>
<g>
</g>
<g>
</g>
<g>
</g>
<g>
</g>
<g>
</g>
<g>
</g>
<g>
</g>
<g>
</g>
<g>
</g>
<g>
</g>
<g>
</g>
<g>
</g>
</svg>
