<?xml version="1.0" encoding="utf-8"?>
<!-- Generator: Adobe Illustrator 21.1.0, SVG Export Plug-In . SVG Version: 6.00 Build 0)  -->
<svg version="1.1" id="Capa_1" xmlns="http://www.w3.org/2000/svg" xmlns:xlink="http://www.w3.org/1999/xlink" x="0px" y="0px"
	 viewBox="0 0 442 442" style="enable-background:new 0 0 442 442;" xml:space="preserve">
<path d="M439.6,136.9l-77.5-90c-1.9-2.2-4.7-3.5-7.6-3.5H87.5c-2.9,0-5.7,1.3-7.6,3.5l-77.5,90c-3.2,3.8-3.2,9.3,0,13l39.3,45.6
	c0.7,1.2,1.6,2.2,2.6,3l169.2,196.5c1.9,2.2,4.7,3.5,7.6,3.5s5.7-1.3,7.6-3.5l211-245.1C442.8,146.2,442.8,140.7,439.6,136.9z
	 M221,311.9l-19-22.1c7.7,1.1,15.8,1.7,24.1,1.7c4.4,0,8.8-0.2,13.1-0.7L221,311.9z M255.8,222.4c-2.8,3.7-13,9.1-29.7,9.1
	c-27.2,0-39-8.3-40-11.1c-3.3-13.4-15.3-22.8-29.1-22.8c-2.4,0-4.8,0.3-7.2,0.9c-6.9,1.7-12.8,5.8-16.8,11.2l-57-66.2l34.4-40h12.9
	c-5.5,13-6.3,27.3-2.4,41.5c10.4,37.6,53.1,50.1,87.4,60.1l8.5,2.5c8.5,2.5,18.1,5.3,26,8.3C251.5,219.1,254.7,221.3,255.8,222.4
	C255.8,222.3,255.8,222.3,255.8,222.4z M313.4,204.6c-10.3-34.5-47.2-45.2-79.8-54.7l-8.5-2.5c-9.9-2.9-21.2-6.2-30.6-9.9
	c-12.6-5-15.3-8.2-15.8-8.8c-0.4-1.4-0.3-2,0.8-3.4c3-4,14.5-11.6,35.9-11.6c27.6,0,48.1,8.7,48.1,16.5c0,16.5,13.5,30,30,30
	s30-13.5,30-30c0-9.4-1.9-18.5-5.7-26.8h13.8l34.4,40L313.4,204.6z"/>
</svg>
