<svg xmlns="http://www.w3.org/2000/svg" viewBox="0 0 50 50" width="50" height="50">
    <path d="M 25 3 C 12.869 3 3 12.869 3 25 C 3 25.217 3.009625 25.430484 3.015625 25.646484 C 3.774625 25.420484 4.3279062 25.291297 4.3789062 25.279297 C 15.379906 23.327297 25 31.819094 25 42.496094 C 25 43.522094 24.909422 44.5545 24.732422 45.5625 C 24.691422 45.7865 24.588219 46.332328 24.449219 46.986328 C 24.633219 46.991328 24.816 47 25 47 C 37.131 47 47 37.131 47 25 C 47 24.768 46.990422 24.538594 46.982422 24.308594 C 46.295422 24.544594 45.767812 24.68475 45.632812 24.71875 C 44.556812 24.91075 43.523094 25 42.496094 25 C 32.849094 25 25 17.151906 25 7.5039062 C 25 6.4779063 25.090578 5.4455 25.267578 4.4375 C 25.292578 4.2995 25.398453 3.7346719 25.564453 3.0136719 C 25.376453 3.0096719 25.189 3 25 3 z M 27.589844 3.15625 C 27.425844 3.82925 27.297375 4.4430625 27.234375 4.7890625 C 27.079375 5.6780625 27 6.5939062 27 7.5039062 C 27 16.048906 33.951094 23 42.496094 23 C 43.407094 23 44.321891 22.920672 45.212891 22.763672 C 45.536891 22.679672 46.151312 22.490328 46.820312 22.236328 C 45.563313 12.253328 37.596844 4.33525 27.589844 3.15625 z M 7.5039062 27 C 6.5909062 27 5.6732969 27.080281 4.7792969 27.238281 C 4.7822969 27.238281 4.0749219 27.405406 3.1699219 27.691406 C 4.3999219 37.714406 12.392594 45.673703 22.433594 46.845703 C 22.562594 46.254703 22.680625 45.669984 22.765625 45.208984 C 22.920625 44.321984 23 43.406094 23 42.496094 C 23 33.951094 16.048906 27 7.5039062 27 z"/>
</svg>