<svg xmlns="http://www.w3.org/2000/svg" viewBox="0 0 50 50" width="50" height="50">
    <path d="M 25 2 C 22.095 2 19.315906 2.5462031 16.753906 3.5332031 C 16.781906 4.3142031 16.810547 4.9469375 16.810547 4.9609375 C 16.841547 5.7939375 16.943078 6.9754844 17.205078 8.3964844 C 19.928078 7.2514844 29.136891 4.0323594 39.837891 7.4433594 C 35.828891 4.0513594 30.65 2 25 2 z M 14.785156 4.4003906 C 13.376156 5.1023906 12.050266 5.9442031 10.822266 6.9082031 C 10.812266 7.4502031 10.815891 8.1292969 10.837891 9.0292969 C 11.049891 22.178297 18.762125 29.444953 21.328125 31.501953 C 22.298125 29.679953 23.169328 27.596234 23.861328 25.240234 C 16.093328 17.044234 14.9375 8.4159687 14.8125 5.0429688 C 14.8115 5.0099688 14.799156 4.7623906 14.785156 4.4003906 z M 30.046875 7.9101562 C 23.745365 7.8917925 19.010594 9.774375 17.644531 10.382812 C 18.135531 12.259813 18.914234 14.411547 20.115234 16.685547 C 22.475234 15.721547 34.154719 11.638828 47.136719 19.173828 C 47.187719 19.202828 47.226391 19.225906 47.275391 19.253906 C 46.463391 16.111906 44.998969 13.232766 43.042969 10.759766 C 41.029969 9.9017656 39.467406 9.4181562 39.441406 9.4101562 C 36.098281 8.3185938 32.911198 7.9185034 30.046875 7.9101562 z M 8.8300781 8.6621094 C 6.6410781 10.829109 4.8851719 13.433125 3.7011719 16.328125 C 3.9821719 18.724125 4.4080625 20.543312 4.4140625 20.570312 C 6.7170625 31.113312 13.878438 37.095594 16.023438 38.683594 C 17.430438 37.287594 18.936219 35.495906 20.324219 33.253906 C 17.755219 31.243906 9.0688906 23.400312 8.8378906 9.0703125 C 8.8338906 8.9223125 8.8320781 8.8001094 8.8300781 8.6621094 z M 30.128906 16.712891 C 25.674531 16.831891 22.385875 17.937453 21.109375 18.439453 C 22.207375 20.224453 23.596406 22.057094 25.316406 23.871094 C 36.447406 21.209094 44.575312 24.625328 47.570312 26.236328 C 47.595313 26.249328 47.737172 26.3235 47.951172 26.4375 C 47.981172 25.9615 48.001953 25.483 48.001953 25 C 48.001953 23.941 47.923203 22.899906 47.783203 21.878906 C 47.351203 21.611906 46.826672 21.29725 46.138672 20.90625 C 40.202672 17.46025 34.583281 16.593891 30.128906 16.712891 z M 2.4023438 20.734375 C 2.1413438 22.117375 1.9980469 23.542 1.9980469 25 C 1.9980469 32.215 5.3396875 38.660859 10.554688 42.880859 C 11.030687 42.582859 11.463563 42.309625 11.726562 42.140625 C 12.437563 41.693625 13.419297 41.005641 14.529297 40.056641 C 11.895297 38.028641 4.8038438 31.720625 2.4648438 21.015625 C 2.4598438 20.994625 2.4373437 20.893375 2.4023438 20.734375 z M 34.466797 24.896484 C 34.022797 28.073484 31.594391 39.589328 19.275391 46.986328 C 19.156391 47.059328 19.057312 47.118547 18.945312 47.185547 C 20.876313 47.712547 22.904 48 25 48 C 26.07 48 27.121344 47.920344 28.152344 47.777344 C 30.076344 46.339344 31.424312 45.071734 31.445312 45.052734 C 39.446313 37.757734 41.022406 28.543922 41.316406 25.919922 C 39.397406 25.394922 37.098797 24.980484 34.466797 24.896484 z M 32.447266 24.904297 C 30.386266 24.971297 28.157391 25.246406 25.775391 25.816406 C 22.574391 36.692406 15.659875 42.028125 12.796875 43.828125 C 12.769875 43.846125 12.573203 43.970297 12.283203 44.154297 C 13.578203 45.016297 14.968687 45.748891 16.429688 46.337891 C 16.901688 46.076891 17.481234 45.739391 18.240234 45.275391 C 29.543234 38.489391 31.959266 28.115297 32.447266 24.904297 z M 43.257812 26.527344 C 42.822812 29.819344 40.912594 39.128531 32.808594 46.519531 C 32.792594 46.534531 32.723328 46.598172 32.611328 46.701172 C 40.474328 43.934172 46.396703 37.013984 47.720703 28.583984 C 47.279703 28.346984 46.881859 28.134953 46.630859 28.001953 C 45.859859 27.586953 44.714812 27.044344 43.257812 26.527344 z"/>
</svg>