<?xml version="1.0" encoding="utf-8"?>
<!-- Generator: Adobe Illustrator 21.1.0, SVG Export Plug-In . SVG Version: 6.00 Build 0)  -->
<svg version="1.1" id="Layer_1" xmlns="http://www.w3.org/2000/svg" xmlns:xlink="http://www.w3.org/1999/xlink" x="0px" y="0px"
	 viewBox="0 0 50 50" style="enable-background:new 0 0 50 50;" xml:space="preserve">
<style type="text/css">
	.st0{clip-path:url(#SVGID_2_);}
	.st1{display:none;}
</style>
<g>
	<defs>
		<rect id="SVGID_1_" y="0" width="50.3" height="50.3"/>
	</defs>
	<clipPath id="SVGID_2_">
		<use xlink:href="#SVGID_1_"  style="overflow:visible;"/>
	</clipPath>
	<g class="st0">
		<circle cx="13.8" cy="6.6" r="4.6"/>
		<circle cx="25.7" cy="16.7" r="3.7"/>
		<path class="st1" d="M0,34.4c0,0,7.8,7.7,22.9,2.2c3.8-1.4,10-9.4,28.5-3.6"/>
		<path d="M17.1,22.9c0.1,0.4-0.2,1.5-0.2,1.5L14.1,34l10.2-2.7c0,0,1-4,2.2-5c1.4-1.1,7.7-1.1,12.3-1c2.8,0.1,2.8,0.2,3.8,0.1
			c1.4-0.1,1.1-2.4,0.4-2.5c-1.7-0.4-4.8-0.3-4.8-0.3s-12.7,0-16.5-1.5c-0.4-0.1-3.3-1.8-3.3-1.8L12,13.1c0,0-0.4-0.5-1.9-1.4
			c-0.9-0.5-2.2,0.6-2.1,1.4c0,0.8,1.8,2.3,1.8,2.3l5.8,5.7C15.5,21.1,16.9,22.3,17.1,22.9z"/>
	</g>
	<path class="st0" d="M-2.9,33.4c0,0,1.6-0.4,2.1-0.8c2.3-1.4,3.9-3.2,6.9-3.2c3.4,0,6.7,3.6,9.8,3.6c3.6,0,6.1-3.6,9.3-3.6
		c3.5,0,6.3,3.8,9.5,3.8c2.9,0.1,5.9-3.8,9.5-3.8c2.6,0,5.6,2.8,7.5,3.7c0.4,0.2,1.6,0.5,1.6,0.5l0.1,2.5c0,0-1.5,0-2.7-0.6
		c-2-1.1-4.5-3.4-6.5-3.4c-2.7,0-5.1,3.7-9.8,3.7c-3.7,0-6.7-3.7-9.3-3.7c-2.6,0-5,3.4-9.3,3.7c-4.2,0.3-6.7-3.7-9.8-3.7
		c-2.5,0-3.7,2.7-6,3.3c-2,0.6-3,0.6-3,0.6V33.4z"/>
	<path class="st0" d="M-2.9,40c0,0,1.6-0.4,2.1-0.7C1.6,37.9,3.1,36,6.2,36c3.4,0,6.7,3.6,9.8,3.6c3.6,0,6.1-3.6,9.3-3.6
		c3.5,0,6.3,3.8,9.5,3.8c2.9,0,5.9-3.8,9.5-3.8c2.6,0,5.6,2.8,7.5,3.7c0.4,0.2,1.6,0.5,1.6,0.5l0.1,2.5c0,0-1.5,0-2.7-0.6
		c-2-1.1-4.5-3.4-6.5-3.4c-2.7,0-5.1,3.7-9.8,3.7c-3.7,0-6.7-3.7-9.3-3.7c-2.6,0-5,3.4-9.3,3.7c-4.2,0.3-6.7-3.7-9.8-3.7
		c-2.5,0-3.7,2.7-6,3.3c-2,0.6-3,0.6-3,0.6V40z"/>
</g>
</svg>
