<svg xmlns="http://www.w3.org/2000/svg" viewBox="0 0 50 50" width="50" height="50">
    <path d="M 25.5 2 C 23.6 2 22 3.6 22 5.5 C 22 7.0946429 23.13947 8.4715487 24.625 8.875 C 23.424934 8.8894826 22.322222 9.7111111 22 11 L 20.09375 17.1875 C 19.59375 18.6875 20.29375 20.29375 21.59375 21.09375 L 25.1875 23.3125 L 23.8125 26.59375 C 23.7125 26.69375 23.4875 27.3875 23.6875 28.1875 C 23.8875 28.5875 24.19375 28.9875 24.59375 29.1875 C 24.79375 29.2875 25.1125 29.40625 25.3125 29.40625 C 26.1125 29.40625 26.7875 28.8 27.1875 28 L 28.59375 24.5 C 29.19375 23 28.8 21.3125 27.5 20.3125 L 25.59375 18.90625 L 26.59375 15.6875 L 29.5625 16.59375 L 29.3125 17.5 C 29.2125 18.1 29.1 18.60625 29 18.90625 C 30.8 20.50625 31.40625 22.99375 30.40625 25.09375 L 29 28.59375 L 29 28.6875 L 29 28.8125 C 28.2 30.4125 26.8125 31.3125 25.3125 31.3125 C 24.8125 31.3125 24.3125 31.2 23.8125 31 C 22.9125 30.6 22.2125 29.80625 21.8125 28.90625 C 21.3125 27.50625 21.70625 26.2125 21.90625 25.8125 L 22.59375 24.09375 L 20.5 22.8125 C 19.2 22.0125 18.3 20.6 18 19 L 17.09375 19 C 12.69375 19 10 21.6125 10 25.8125 C 10 28.3125 10.80625 29.5125 11.40625 30.3125 C 11.70625 30.8125 11.90625 31.0125 11.90625 31.3125 C 11.90625 32.1125 11.00625 33.19375 9.90625 34.59375 C 9.40625 35.19375 8.90625 35.8 8.40625 36.5 C 8.30625 36.7 8.1875 36.89375 8.1875 37.09375 L 8.1875 47 C 8.1875 47.6 8.5875 48 9.1875 48 L 12.09375 48 C 12.69375 48 13.09375 47.6 13.09375 47 L 13.09375 38.90625 C 14.59375 38.00625 18.50625 35.40625 19.40625 31.90625 C 21.30625 32.60625 25.1875 33.8 30.1875 34 C 29.7875 38.3 29 43.80625 29 43.90625 C 29 44.10625 28.99375 44.39375 29.09375 44.59375 C 29.29375 44.99375 30 46.19375 30 47.09375 C 30 47.69375 30.4 48.09375 31 48.09375 L 34 48.09375 C 34.6 48.09375 35 47.69375 35 47.09375 C 35 45.89375 34.39375 44.60625 34.09375 43.90625 C 34.39375 42.40625 35.5 36.99375 36 32.59375 C 36.9 31.89375 38.90625 30 38.90625 27 C 38.90625 26.4 38.9125 25.7 38.8125 25 C 38.7125 22.9 38.60625 19.79375 39.40625 18.59375 C 40.60625 18.89375 41.8875 18.79375 42.6875 18.59375 C 43.5875 18.89375 45.30625 19.3125 45.40625 19.3125 L 45.6875 19.3125 C 45.9875 19.3125 46.20625 19.2 46.40625 19 C 47.50625 17.8 47.50625 15.8875 46.40625 14.6875 L 44.59375 12.6875 C 44.19375 11.9875 43.00625 9.7875 40.40625 9.1875 C 40.60625 8.2875 40.4875 7.2125 39.6875 6.3125 C 39.2875 5.9125 38.7125 5.9125 38.3125 6.3125 C 38.0125 6.5125 38 6.8875 38 7.1875 C 34.3 8.0875 32.1125 10.59375 30.8125 13.09375 L 30.78125 13.125 L 27.59375 12.1875 C 27.79375 10.7875 26.9 9.4 25.5 9 C 27.4 9 29 7.4 29 5.5 C 29 3.6 27.4 2 25.5 2 z M 9.09375 21 C 5.69375 21 2 24.4 2 30 C 2 30.6 2.4 31 3 31 L 6 31 C 6.6 31 7 30.6 7 30 C 7 29.9 6.99375 28.2875 8.09375 27.1875 C 7.99375 26.7875 8 26.3125 8 25.8125 C 8 24.0125 8.5125 22.4 9.3125 21 L 9.09375 21 z M 38.1875 33.1875 C 38.0875 33.2875 38.0125 33.49375 37.8125 33.59375 C 37.3125 37.39375 36.49375 41.59375 36.09375 43.59375 C 36.29375 43.99375 36.39375 44.40625 36.59375 44.90625 L 36.6875 44.90625 C 36.9875 44.90625 37.20625 44.7 37.40625 44.5 L 39.90625 41 C 40.10625 40.7 40.1 40.39375 40 40.09375 C 39.9 39.99375 38.7875 36.9875 38.1875 33.1875 z M 20.6875 34.40625 C 19.7875 36.10625 18.39375 37.49375 17.09375 38.59375 L 20.3125 47.3125 C 20.4125 47.7125 20.7875 48 21.1875 48 L 24.09375 48 C 24.39375 48 24.70625 47.79375 24.90625 47.59375 C 25.10625 47.39375 25.1 46.9875 25 46.6875 L 22.09375 38.09375 C 22.39375 37.49375 22.8875 36.49375 23.1875 35.09375 C 22.2875 34.89375 21.3875 34.70625 20.6875 34.40625 z"/>
</svg>