<?xml version="1.0" encoding="iso-8859-1"?>
<!-- Generator: Adobe Illustrator 18.0.0, SVG Export Plug-In . SVG Version: 6.00 Build 0)  -->
<!DOCTYPE svg PUBLIC "-//W3C//DTD SVG 1.1//EN" "http://www.w3.org/Graphics/SVG/1.1/DTD/svg11.dtd">
<svg version="1.1" id="Capa_1" xmlns="http://www.w3.org/2000/svg" xmlns:xlink="http://www.w3.org/1999/xlink" x="0px" y="0px"
	 viewBox="0 0 297 297" style="enable-background:new 0 0 297 297;" xml:space="preserve">
<g>
	<path d="M148.5,218.016c-18.605,0-33.741,15.136-33.741,33.741s15.136,33.741,33.741,33.741s33.741-15.136,33.741-33.741
		S167.105,218.016,148.5,218.016z M148.5,266.079c-7.897,0-14.322-6.425-14.322-14.322c0-7.897,6.425-14.322,14.322-14.322
		s14.322,6.425,14.322,14.322C162.822,259.654,156.397,266.079,148.5,266.079z"/>
	<path d="M162.231,152.477l12.764-12.764c5.183,3.02,10.557,4.541,16.089,4.541c3.597,0,7.261-0.64,10.982-1.922
		c9.599-3.307,18.167-10.542,26.121-17.669c4.618-4.138,12.092-4.867,20.747-5.711c11.537-1.125,25.895-2.524,36.95-13.806
		c18.795-19.177,10.257-41.5-0.068-51.825L247.656,15.16C237.332,4.835,215.008-3.7,195.832,15.091
		c-11.282,11.056-12.682,25.415-13.807,36.952c-0.844,8.655-1.572,16.129-5.71,20.747c-7.127,7.953-14.362,16.521-17.67,26.121
		c-3.253,9.442-2.355,18.511,2.626,27.062l-12.772,12.772l-12.771-12.771c4.981-8.552,5.88-17.621,2.626-27.064
		c-3.307-9.598-10.542-18.166-17.669-26.12c-4.138-4.618-4.866-12.092-5.71-20.747c-1.125-11.538-2.525-25.896-13.807-36.951
		C81.993-3.703,59.67,4.836,49.344,15.16L11.183,53.321C0.858,63.646-7.68,85.968,11.114,105.145
		c11.056,11.282,25.414,12.682,36.952,13.807c8.654,0.844,16.129,1.572,20.747,5.71c7.953,7.127,16.522,14.361,26.12,17.67
		c3.722,1.282,7.386,1.922,10.984,1.922c5.531,0,10.904-1.521,16.086-4.541l12.765,12.765L10.798,276.447
		c-3.792,3.792-3.792,9.94,0,13.732c1.896,1.895,4.381,2.844,6.866,2.844s4.969-0.948,6.866-2.844l123.969-123.97l121.785,121.785
		c1.896,1.895,4.381,2.844,6.866,2.844s4.969-0.948,6.866-2.844c3.792-3.792,3.792-9.94,0-13.732L162.231,152.477z M207.076,31.744
		l11.147,11.147l-9.968,9.968l-6.117-6.117C202.904,41.014,204.137,35.923,207.076,31.744z M266.072,61.04l-7.984,7.985
		l-9.635-9.635l7.985-7.985L266.072,61.04z M251.222,75.889l-9.968,9.968l-9.635-9.635l9.968-9.968L251.222,75.889z M254.237,98.84
		l-6.118-6.117l9.968-9.968l11.148,11.147C265.056,96.841,259.965,98.073,254.237,98.84z M224.755,83.087l9.635,9.635l-9.968,9.968
		l-9.635-9.635L224.755,83.087z M207.922,86.191l-9.635-9.635l9.968-9.968l9.635,9.635L207.922,86.191z M224.755,69.358
		l-9.635-9.635l9.968-9.968l9.635,9.635L224.755,69.358z M190.777,85.75c0.476-0.531,0.922-1.073,1.353-1.62l8.926,8.926
		l-9.968,9.968l-8.041-8.041C185.125,92.24,187.69,89.196,190.777,85.75z M184.223,109.889l-6.239,6.239
		c-2.244-3.93-2.413-7.807-0.215-12.694L184.223,109.889z M184.85,122.993l6.239-6.239l6.455,6.455
		C192.657,125.406,188.78,125.236,184.85,122.993z M205.995,117.93l-8.041-8.041l9.968-9.968l8.927,8.927
		c-0.547,0.431-1.09,0.877-1.621,1.354C211.782,113.288,208.738,115.852,205.995,117.93z M275.759,86.696l-10.807-10.807
		l7.917-7.917c1.044,1.306,2.882,3.901,3.948,7.12C278.175,79.197,277.845,82.978,275.759,86.696z M249.572,44.54l-7.985,7.985
		l-9.635-9.635l7.985-7.985L249.572,44.54z M225.407,24.01c3.456,1.039,6.233,3.005,7.598,4.098l-7.917,7.917l-10.811-10.811
		C217.852,23.205,221.481,22.828,225.407,24.01z M27.766,93.901l11.147-11.147l9.968,9.968l-6.117,6.117
		C37.036,98.073,31.944,96.84,27.766,93.901z M20.033,75.57c1.039-3.456,3.005-6.233,4.099-7.597l7.916,7.916L21.237,86.7
		C19.228,83.125,18.852,79.496,20.033,75.57z M40.563,51.405l7.984,7.984l-9.635,9.635l-7.984-7.984L40.563,51.405z M89.924,31.743
		c2.939,4.179,4.172,9.271,4.938,14.998l-6.117,6.117l-9.968-9.968L89.924,31.743z M81.88,59.723l-9.635,9.635l-9.968-9.968
		l9.635-9.635L81.88,59.723z M65.38,76.222l-9.635,9.635l-9.968-9.968l9.635-9.635L65.38,76.222z M62.611,92.722l9.635-9.635
		l9.968,9.968l-9.635,9.635L62.611,92.722z M79.11,76.222l9.635-9.635l9.968,9.968l-9.635,9.635L79.11,76.222z M104.869,84.129
		c0.431,0.547,0.877,1.089,1.353,1.621c3.087,3.445,5.651,6.489,7.729,9.232l-8.041,8.041l-9.968-9.968L104.869,84.129z
		 M119.231,103.433c2.199,4.888,2.03,8.765-0.215,12.695l-6.24-6.24L119.231,103.433z M82.718,25.219L71.912,36.025l-7.916-7.916
		c1.306-1.044,3.9-2.882,7.119-3.948C75.218,22.801,78.999,23.132,82.718,25.219z M57.063,34.906l7.984,7.984l-9.635,9.635
		l-7.984-7.984L57.063,34.906z M80.152,108.846l8.926-8.926l9.968,9.968l-8.041,8.041c-2.743-2.078-5.787-4.642-9.233-7.729
		C81.241,109.724,80.699,109.277,80.152,108.846z M99.456,123.207l6.454-6.454l6.24,6.24
		C108.221,125.237,104.344,125.406,99.456,123.207z"/>
</g>
<g>
</g>
<g>
</g>
<g>
</g>
<g>
</g>
<g>
</g>
<g>
</g>
<g>
</g>
<g>
</g>
<g>
</g>
<g>
</g>
<g>
</g>
<g>
</g>
<g>
</g>
<g>
</g>
<g>
</g>
</svg>
