<svg xmlns="http://www.w3.org/2000/svg" viewBox="0 0 50 50" width="50" height="50">
    <path d="M 36.636719 2.0058594 C 33.72646 2.0058594 30.816152 3.1135355 28.601562 5.328125 L 25.328125 8.6015625 C 22.758289 11.171398 21.68933 14.676849 22.101562 18.033203 L 22.091797 18.035156 C 22.344383 20.131717 22.530504 26.035494 20.388672 28.197266 C 20.384385 28.201525 20.379275 28.204709 20.375 28.208984 L 20.376953 28.210938 L 14 34.585938 L 15.414062 36 L 21.789062 29.625 L 21.791016 29.625 C 22.921991 28.494024 25.472032 27.923615 27.751953 27.800781 C 30.031874 27.677947 31.962891 27.910156 31.962891 27.910156 L 31.964844 27.896484 C 35.321864 28.309456 38.828042 27.242271 41.398438 24.671875 L 44.671875 21.398438 C 49.101196 16.970211 49.100912 9.7582567 44.671875 5.328125 C 42.457286 3.1135355 39.546977 2.0058594 36.636719 2.0058594 z M 15.613281 2.0332031 C 14.735656 2.0332031 13.85875 2.3526875 13.21875 2.9921875 C 12.94981 3.2611275 12.742485 3.582895 12.578125 3.9238281 L 2.6035156 8.21875 C 2.2375156 8.37575 2 8.7377188 2 9.1367188 C 2 10.428719 2.6441094 11.427016 3.0371094 11.916016 C 3.2011094 14.000016 4.6487031 15.047594 5.7207031 15.433594 C 6.1667031 16.211594 7.2652187 17.749125 9.0742188 17.953125 C 9.5612188 18.346125 10.565281 18.998047 11.863281 18.998047 C 12.262281 18.998047 12.62425 18.760531 12.78125 18.394531 L 17.068359 8.4414062 C 17.415247 8.2761242 17.734855 8.0542079 18.007812 7.78125 C 18.646812 7.14125 19 6.2907187 19 5.3867188 C 19 4.4817187 18.646812 3.6311875 18.007812 2.9921875 C 17.368313 2.3526875 16.490906 2.0332031 15.613281 2.0332031 z M 36.28125 4.0117188 L 34 6.2929688 L 32.621094 4.9140625 C 33.780615 4.364711 35.025331 4.0593626 36.28125 4.0117188 z M 37.783203 4.0761719 C 38.94467 4.2194771 40.08327 4.5765674 41.136719 5.15625 L 40 6.2929688 L 37.783203 4.0761719 z M 37 4.7070312 L 39.292969 7 L 37 9.2929688 L 34.707031 7 L 37 4.7070312 z M 31.707031 5.4140625 L 33.292969 7 L 31 9.2929688 L 29.232422 7.5253906 L 30.015625 6.7421875 C 30.536611 6.2212015 31.10804 5.785499 31.707031 5.4140625 z M 13.625 5.6523438 L 15.353516 7.3632812 L 13.59375 11.59375 L 9.375 7.46875 L 13.625 5.6523438 z M 42.005859 5.7011719 C 42.443626 6.0091918 42.865953 6.3503278 43.257812 6.7421875 C 43.649688 7.1341592 43.990761 7.5562924 44.298828 7.9941406 L 43 9.2929688 L 40.707031 7 L 42.005859 5.7011719 z M 34 7.7070312 L 36.292969 10 L 34 12.292969 L 31.707031 10 L 34 7.7070312 z M 40 7.7070312 L 42.292969 10 L 40 12.292969 L 37.707031 10 L 40 7.7070312 z M 28.525391 8.2324219 L 30.292969 10 L 28 12.292969 L 26.257812 10.550781 C 26.413621 10.369124 26.569997 10.187815 26.742188 10.015625 L 28.525391 8.2324219 z M 44.845703 8.8613281 C 45.426672 9.916625 45.784825 11.056995 45.927734 12.220703 L 43.707031 10 L 44.845703 8.8613281 z M 31 10.707031 L 33.292969 13 L 31 15.292969 L 28.707031 13 L 31 10.707031 z M 37 10.707031 L 39.292969 13 L 37 15.292969 L 34.707031 13 L 37 10.707031 z M 43 10.707031 L 45.292969 13 L 43 15.292969 L 40.707031 13 L 43 10.707031 z M 25.640625 11.347656 L 27.292969 13 L 25 15.292969 L 24.244141 14.537109 C 24.500012 13.41508 24.965429 12.332485 25.640625 11.347656 z M 28 13.707031 L 30.292969 16 L 28 18.292969 L 25.707031 16 L 28 13.707031 z M 34 13.707031 L 36.292969 16 L 34 18.292969 L 31.707031 16 L 34 13.707031 z M 40 13.707031 L 42.292969 16 L 40 18.292969 L 37.707031 16 L 40 13.707031 z M 45.988281 13.71875 C 45.940669 14.975356 45.640794 16.2211 45.087891 17.380859 L 43.707031 16 L 45.988281 13.71875 z M 24.054688 15.761719 L 24.292969 16 L 24.011719 16.28125 C 24.018302 16.107803 24.0386 15.934665 24.054688 15.761719 z M 25 16.707031 L 27.292969 19 L 25.154297 21.138672 C 24.552179 20.045123 24.186287 18.859908 24.054688 17.652344 L 25 16.707031 z M 31 16.707031 L 33.292969 19 L 31 21.292969 L 28.707031 19 L 31 16.707031 z M 37 16.707031 L 39.292969 19 L 37 21.292969 L 34.707031 19 L 37 16.707031 z M 43 16.707031 L 44.589844 18.296875 C 44.217216 18.895016 43.77825 19.464066 43.257812 19.984375 L 42.474609 20.767578 L 40.707031 19 L 43 16.707031 z M 28 19.707031 L 30.292969 22 L 27.988281 24.304688 C 27.550661 23.99779 27.133829 23.649454 26.742188 23.257812 C 26.350328 22.865953 26.009233 22.44362 25.701172 22.005859 L 28 19.707031 z M 34 19.707031 L 36.292969 22 L 34 24.292969 L 31.707031 22 L 34 19.707031 z M 40 19.707031 L 41.767578 21.474609 L 39.984375 23.257812 C 39.811791 23.430396 39.627381 23.582078 39.445312 23.738281 L 37.707031 22 L 40 19.707031 z M 31 22.707031 L 33.292969 25 L 32.357422 25.935547 C 32.30609 25.929995 32.254378 25.930223 32.203125 25.923828 L 32.189453 25.921875 C 31.037847 25.77647 29.910322 25.413483 28.865234 24.841797 L 31 22.707031 z M 37 22.707031 L 38.644531 24.351562 C 37.660372 25.026548 36.581922 25.498282 35.460938 25.753906 L 34.707031 25 L 37 22.707031 z M 24.113281 23.214844 C 24.475369 23.723724 24.872156 24.215906 25.328125 24.671875 C 25.781723 25.125473 26.271351 25.520168 26.777344 25.880859 C 25.70738 25.970328 24.59189 26.134032 23.537109 26.447266 C 23.851419 25.404318 24.013635 24.291991 24.113281 23.214844 z M 34 25.707031 L 34.248047 25.955078 C 34.075778 25.971155 33.903255 25.969997 33.730469 25.976562 L 34 25.707031 z M 11.09375 36.007812 C 10.30475 36.007812 9.5316562 36.327719 8.9726562 36.886719 L 2.5878906 43.273438 C 2.2088906 43.649437 2 44.150547 2 44.685547 C 2 45.219547 2.2079375 45.723563 2.5859375 46.101562 L 3.8984375 47.414062 C 4.2754375 47.792063 4.7775 48 5.3125 48 C 5.8475 48 6.3495156 47.792062 6.7285156 47.414062 L 13.113281 41.027344 C 13.672281 40.468344 13.992188 39.69525 13.992188 38.90625 L 13.992188 37.40625 L 12.59375 36.007812 L 11.09375 36.007812 z"/>
</svg>