<svg xmlns="http://www.w3.org/2000/svg" viewBox="0 0 50 50" width="50" height="50">
    <path d="M 24 2.0253906 C 17.513 2.3043906 11.717125 5.2842344 7.703125 9.8652344 C 12.930125 12.537234 16.588219 17.827 16.949219 24 L 24 24 L 24 2.0253906 z M 26 2.0253906 L 26 24 L 33.050781 24 C 33.411781 17.827 37.069875 12.537234 42.296875 9.8652344 C 38.282875 5.2842344 32.487 2.3053906 26 2.0253906 z M 6.421875 11.464844 C 3.828875 15.013844 2.2263906 19.327 2.0253906 24 L 14.949219 24 C 14.581219 18.458 11.198875 13.740844 6.421875 11.464844 z M 43.578125 11.464844 C 38.801125 13.740844 35.418781 18.457 35.050781 24 L 47.974609 24 C 47.773609 19.327 46.171125 15.013844 43.578125 11.464844 z M 2.0253906 26 C 2.2263906 30.673 3.828875 34.986156 6.421875 38.535156 C 11.198875 36.259156 14.581219 31.542 14.949219 26 L 2.0253906 26 z M 16.949219 26 C 16.587219 32.173 12.930125 37.462766 7.703125 40.134766 C 11.716125 44.715766 17.512 47.695609 24 47.974609 L 24 26 L 16.949219 26 z M 26 26 L 26 47.974609 C 32.487 47.695609 38.282875 44.715766 42.296875 40.134766 C 37.069875 37.462766 33.411781 32.173 33.050781 26 L 26 26 z M 35.050781 26 C 35.418781 31.542 38.801125 36.259156 43.578125 38.535156 C 46.171125 34.986156 47.773609 30.673 47.974609 26 L 35.050781 26 z"/>
</svg>