<svg xmlns="http://www.w3.org/2000/svg" viewBox="0 0 50 50" width="50" height="50">
    <path d="M 42.509766 1.9863281 C 41.024766 1.9863281 39.615875 2.5764844 38.546875 3.6464844 L 28.146484 14.046875 C 26.102484 16.090875 23.09225 20.114953 19.90625 24.376953 C 16.47125 28.970953 14.919094 31.721313 12.246094 34.445312 L 6.9414062 39.751953 L 10.349609 43.158203 L 15.65625 37.849609 C 18.41525 35.036609 21.349094 33.347297 26.121094 29.779297 C 30.213094 26.718297 34.078688 23.828516 36.054688 21.853516 L 46.253906 11.652344 C 48.280906 9.6253438 48.598906 6.5366875 47.003906 4.3046875 C 45.928906 2.8316875 44.289766 1.9863281 42.509766 1.9863281 z M 15 2 C 11.691 2 9 4.691 9 8 C 9 8.154 9.0124375 8.3040781 9.0234375 8.4550781 C 10.484438 8.0810781 11.87375 7.2697813 13.09375 6.0507812 C 14.30075 4.8437813 15.109281 3.4693906 15.488281 2.0253906 C 15.326281 2.0123906 15.165 2 15 2 z M 16.955078 2.3339844 C 16.517078 4.0609844 15.570344 5.692375 14.152344 7.109375 C 12.720344 8.541375 11.069266 9.4937812 9.3222656 9.9257812 C 9.9102656 11.654781 11.266422 13.027578 12.982422 13.642578 C 13.468422 11.926578 14.458203 10.282031 15.908203 8.8320312 C 17.263203 7.4770312 18.867594 6.56575 20.683594 6.09375 C 20.091594 4.33475 18.707078 2.9409844 16.955078 2.3339844 z M 20.978516 7.578125 C 19.457516 7.991125 18.108703 8.7565313 16.970703 9.8945312 C 15.726703 11.138531 14.871266 12.531656 14.447266 13.972656 C 14.629266 13.989656 14.813 14 15 14 C 18.309 14 21 11.309 21 8 C 21 7.858 20.987516 7.718125 20.978516 7.578125 z M 3.8242188 40.238281 C 3.3492187 40.238281 2.8753906 40.413672 2.5253906 40.763672 C 1.8253906 41.463672 1.8253906 42.662281 2.5253906 43.363281 L 6.6445312 47.482422 C 7.3445313 48.182422 8.5441406 48.182422 9.2441406 47.482422 C 9.9441406 46.781422 9.9441406 45.581813 9.2441406 44.882812 L 5.125 40.763672 C 4.775 40.413672 4.2992187 40.238281 3.8242188 40.238281 z"/>
</svg>