<svg xmlns="http://www.w3.org/2000/svg" viewBox="0 0 50 50" width="50" height="50">
    <path style="line-height:normal;text-indent:0;text-align:start;text-decoration-line:none;text-decoration-style:solid;text-decoration-color:#000;text-transform:none;block-progression:tb;isolation:auto;mix-blend-mode:normal"
          d="M 7.9550781 2 A 1.0001 1.0001 0 0 0 7.8417969 2.0058594 C 4.6509458 2.0666291 2.0603848 4.6612007 2.0058594 7.8535156 A 1.0001 1.0001 0 0 0 2 7.9550781 L 2 47 A 1.0001 1.0001 0 1 0 4 47 L 4 11.861328 C 4.5971542 12.261244 5.2830099 12.530159 6 12.736328 L 6 47 A 1.0001 1.0001 0 0 0 7 48 L 47 48 A 1.0001 1.0001 0 0 0 48 47 L 48 7 A 1.0001 1.0001 0 0 0 47 6 L 12.736328 6 C 12.530159 5.2830099 12.261244 4.5971542 11.861328 4 L 47 4 A 1.0001 1.0001 0 1 0 47 2 L 7.9550781 2 z M 19.5 17 C 20.881 17 22 18.119 22 19.5 C 22 20.881 20.881 22 19.5 22 C 18.119 22 17 20.881 17 19.5 C 17 18.119 18.119 17 19.5 17 z M 39.667969 19.167969 C 41.048969 19.167969 42.167969 20.286969 42.167969 21.667969 C 42.167969 23.048969 41.048969 24.167969 39.667969 24.167969 C 38.286969 24.167969 37.167969 23.048969 37.167969 21.667969 C 37.167969 20.286969 38.286969 19.167969 39.667969 19.167969 z M 34.167969 37.5 C 35.548969 37.5 36.667969 38.619 36.667969 40 C 36.667969 41.381 35.548969 42.5 34.167969 42.5 C 32.786969 42.5 31.667969 41.381 31.667969 40 C 31.667969 38.619 32.786969 37.5 34.167969 37.5 z"
          font-weight="400" font-family="sans-serif" white-space="normal" overflow="visible"/>
</svg>
