<svg xmlns="http://www.w3.org/2000/svg" width="50" height="50" viewBox="0 0 50 50">
    <path d="M 27.59375 0 C 15.38375 0 10.925 2.84275 10.375 11.46875 C 10.81 19.08575 12.986 24.1145 14 26.4375 C 14.134 26.7445 14.2225 26.99975 14.3125 27.21875 C 14.5215 27.73075 14.29225 28.32225 13.78125 28.53125 C 13.65725 28.58225 13.53225 28.59375 13.40625 28.59375 C 13.01225 28.59375 12.62675 28.35575 12.46875 27.96875 C 12.38475 27.76075 12.28325 27.50875 12.15625 27.21875 C 11.21225 25.05175 9.2865 20.66975 8.5625 14.09375 C 6.8785 14.32375 5.29525 15.26 4.28125 16.75 C 3.34625 18.124 2.07575 21.17475 3.96875 25.96875 C 8.40875 37.62575 13.625 39.336 16.75 40.375 C 17.104 40.492 17.43175 40.60575 17.71875 40.71875 C 19.05475 41.25275 21.871 41.375 24 41.375 C 27.595 41.375 37.44775 40.86375 39.71875 38.59375 C 43.62575 34.68875 45 22.641 45 13.5 C 45 3.28 40.76475 0 27.59375 0 z M 40.90625 40.21875 C 37.44925 43.22475 26.25 43.375 24 43.375 C 18.948 43.375 17.48 42.78575 17 42.59375 C 16.752 42.49575 16.461 42.39325 16.125 42.28125 C 15.91 42.21025 15.6755 42.1445 15.4375 42.0625 C 16.1065 45.7865 16.63325 47.353 17.40625 48.125 C 18.93725 49.536 21.644 50 28.5 50 C 35.657 50 38.67875 49.30075 39.59375 47.46875 C 40.41975 45.94375 40.76225 42.74175 40.90625 40.21875 z"/>
</svg>