<svg xmlns="http://www.w3.org/2000/svg" viewBox="0 0 50 50" width="50" height="50">
    <path d="M 33 1.9921875 C 33 1.9921875 8.378 4.808 2 31 L 20.605469 39 C 26.530469 14.93 33 1.9921875 33 1.9921875 z M 44 10 C 41.829 10 40 11.829 40 14 C 40 16.171 41.829 18 44 18 C 46.171 18 48 16.171 48 14 C 48 11.829 46.171 10 44 10 z M 30 18 C 28.914 18 28 18.914 28 20 C 28 20.64227 28.324663 21.219425 28.810547 21.587891 L 28.808594 21.589844 L 28.832031 21.605469 C 28.871059 21.634246 28.91015 21.661531 28.951172 21.6875 L 33.269531 24.648438 C 33.602531 24.877438 33.996391 25 34.400391 25 L 38 25 L 35.525391 32 L 30 32 C 29.460421 32 28.963261 32.225686 28.599609 32.585938 L 28.583984 32.591797 L 23.0625 37.46875 L 23.066406 37.472656 C 22.428042 37.930461 22 38.673308 22 39.5 C 22 40.857 23.143 42 24.5 42 C 25.141958 42 25.731869 41.739416 26.179688 41.326172 L 26.191406 41.339844 L 31.373047 37 L 38.5 37 C 40.047185 37 41.3788 35.931675 41.826172 34.511719 L 41.84375 34.5 L 44.837891 24.939453 L 44.832031 24.929688 C 44.932278 24.634141 45 24.324904 45 24 C 45 22.371 43.629 21 42 21 L 35 21 L 31.109375 18.345703 C 31.109375 18.345703 31.107422 18.34375 31.107422 18.34375 L 31.085938 18.330078 L 31.083984 18.332031 C 30.769156 18.123903 30.397095 18 30 18 z M 19.990234 43.986328 A 1.0001 1.0001 0 0 0 19.798828 44.007812 A 1.0001 1.0001 0 0 0 19.791016 44.009766 A 1.0001 1.0001 0 0 0 19.214844 44.361328 C 19.012235 44.550967 17.393767 46 15 46 C 12.612832 46 10.999208 44.559569 10.789062 44.363281 A 1.0001 1.0001 0 0 0 9.9882812 43.990234 A 1.0001 1.0001 0 0 0 9.9804688 43.990234 A 1.0001 1.0001 0 0 0 9.9511719 43.992188 A 1.0001 1.0001 0 0 0 9.2148438 44.361328 C 9.0122351 44.550967 7.3937666 46 5 46 A 1.0001 1.0001 0 1 0 5 48 C 7.3205519 48 9.0827699 46.968232 10 46.289062 C 10.91723 46.968232 12.679448 48 15 48 C 17.320552 48 19.08277 46.968232 20 46.289062 C 20.91723 46.968232 22.679448 48 25 48 C 27.320552 48 29.08277 46.968232 30 46.289062 C 30.91723 46.968232 32.679448 48 35 48 C 37.320552 48 39.08277 46.968232 40 46.289062 C 40.91723 46.968232 42.679448 48 45 48 A 1.0001 1.0001 0 1 0 45 46 C 42.658069 46 41.070849 44.622484 40.810547 44.382812 A 1.0001 1.0001 0 0 0 39.798828 44.007812 A 1.0001 1.0001 0 0 0 39.791016 44.009766 A 1.0001 1.0001 0 0 0 39.214844 44.361328 C 39.012235 44.550967 37.393767 46 35 46 C 32.658069 46 31.070849 44.622484 30.810547 44.382812 A 1.0001 1.0001 0 0 0 29.798828 44.007812 A 1.0001 1.0001 0 0 0 29.791016 44.009766 A 1.0001 1.0001 0 0 0 29.214844 44.361328 C 29.012235 44.550967 27.393767 46 25 46 C 22.658069 46 21.070849 44.622484 20.810547 44.382812 A 1.0001 1.0001 0 0 0 19.990234 43.986328 z"/>
</svg>