<svg xmlns="http://www.w3.org/2000/svg" viewBox="0 0 50 50" width="50" height="50">
    <path d="M 16 6 A 4 4 0 0 0 12 10 A 4 4 0 0 0 16 14 A 4 4 0 0 0 20 10 A 4 4 0 0 0 16 6 z M 30 11 A 4 4 0 0 0 26 15 A 4 4 0 0 0 30 19 A 4 4 0 0 0 34 15 A 4 4 0 0 0 30 11 z M 12 15 A 3 3 0 0 0 9.359375 16.580078 L 4.5390625 24.28125 L 4.5332031 24.298828 A 3 3 0 0 0 4 26 L 4 33.619141 L 0.33398438 39.896484 A 2 2 0 0 0 0 41 A 2 2 0 0 0 2 43 A 2 2 0 0 0 3.7519531 41.958984 L 3.7832031 41.90625 A 2 2 0 0 0 3.7871094 41.898438 L 7.6757812 35.097656 L 7.6796875 35.083984 A 2 2 0 0 0 7.9824219 34.232422 L 8.8769531 28.783203 L 13.792969 33.458984 L 16.076172 41.539062 A 2 2 0 0 0 18 43 A 2 2 0 0 0 20 41 A 2 2 0 0 0 19.912109 40.417969 L 19.914062 40.417969 L 17.964844 32.626953 A 2 2 0 0 0 17.914062 32.425781 A 2 2 0 0 0 17.392578 31.564453 A 2 2 0 0 0 17.390625 31.5625 L 12.146484 25.582031 L 14.175781 21.78125 L 16.435547 25.953125 C 16.782547 26.598125 17.457406 27 18.191406 27 L 23 27 A 2 2 0 0 0 25 25 A 2 2 0 0 0 23 23 L 19.039062 23 L 16.910156 17.408203 A 2 2 0 0 0 16.882812 17.333984 L 16.880859 17.328125 A 2 2 0 0 0 15.666016 16.117188 L 15.648438 16.099609 L 13.019531 15.175781 L 13.009766 15.179688 A 3 3 0 0 0 12 15 z M 37 18 A 3 3 0 0 0 35.996094 18.177734 L 35.982422 18.173828 L 33.353516 19.097656 L 33.333984 19.117188 A 2 2 0 0 0 32.105469 20.367188 L 29.960938 25.744141 L 25.433594 27.083984 A 2 2 0 0 0 25.394531 27.09375 L 25.384766 27.097656 A 2 2 0 0 0 24 29 A 2 2 0 0 0 26 31 A 2 2 0 0 0 26.779297 30.841797 L 33.037109 28.728516 L 34.826172 24.779297 L 37.857422 27.580078 L 32.777344 32.417969 L 32.775391 32.421875 A 2 2 0 0 0 32.005859 33.859375 L 32.005859 33.861328 L 30.158203 40.226562 A 2 2 0 0 0 30.027344 40.679688 L 30.023438 40.691406 L 30.025391 40.691406 A 2 2 0 0 0 30 41 A 2 2 0 0 0 32 43 A 2 2 0 0 0 33.980469 41.251953 L 35.908203 35.177734 L 41.302734 30.796875 L 40.089844 35.416016 A 2 2 0 0 0 40 36 A 2 2 0 0 0 40.855469 37.636719 L 46.679688 42.498047 A 2 2 0 0 0 48 43 A 2 2 0 0 0 50 41 A 2 2 0 0 0 49.287109 39.470703 L 49.292969 39.462891 L 44.472656 35.617188 L 45.970703 28.482422 L 45.962891 28.460938 A 3 3 0 0 0 46 28 A 3 3 0 0 0 44.933594 25.708984 L 44.923828 25.685547 L 39.251953 19.013672 L 39.244141 19.011719 A 3 3 0 0 0 37 18 z"/>
</svg>