<svg xmlns="http://www.w3.org/2000/svg" viewBox="0 0 50 50" width="50" height="50">
    <path d="M 37 5 A 5 5 0 0 0 32 10 A 5 5 0 0 0 37 15 A 5 5 0 0 0 42 10 A 5 5 0 0 0 37 5 z M 26.5 11 A 3.5 3.5 0 0 0 24.119141 11.941406 L 15.763672 18.675781 L 15.763672 18.685547 A 4 4 0 0 0 14 22 A 4 4 0 0 0 15.910156 25.40625 L 23.626953 30.65625 L 22.046875 40.027344 A 2.5 2.5 0 0 0 22 40.5 A 2.5 2.5 0 0 0 24.5 43 A 2.5 2.5 0 0 0 26.996094 40.636719 L 28.96875 29.357422 L 28.966797 29.353516 A 2 2 0 0 0 29 29 A 2 2 0 0 0 28.125 27.347656 L 28.121094 27.339844 L 22.75 23.376953 L 28.208984 18.558594 L 32.367188 23.162109 L 32.378906 23.167969 A 2 2 0 0 0 34 24 L 41.5 24 A 2.5 2.5 0 0 0 44 21.5 A 2.5 2.5 0 0 0 41.5 19 L 35 19 L 29.408203 12.554688 A 3.5 3.5 0 0 0 26.5 11 z M 11 28 C 6.0412819 28 2 32.041282 2 37 C 2 41.958718 6.0412819 46 11 46 C 15.958718 46 20 41.958718 20 37 C 20 32.041282 15.958718 28 11 28 z M 39 28 C 34.041282 28 30 32.041282 30 37 C 30 41.958718 34.041282 46 39 46 C 43.958718 46 48 41.958718 48 37 C 48 32.041282 43.958718 28 39 28 z M 11 30 C 14.877838 30 18 33.122162 18 37 C 18 40.877838 14.877838 44 11 44 C 7.1221621 44 4 40.877838 4 37 C 4 33.122162 7.1221621 30 11 30 z M 39 30 C 42.877838 30 46 33.122162 46 37 C 46 40.877838 42.877838 44 39 44 C 35.122162 44 32 40.877838 32 37 C 32 33.122162 35.122162 30 39 30 z"/>
</svg>