<svg xmlns="http://www.w3.org/2000/svg" viewBox="0 0 50 50" width="50" height="50">
    <path style="line-height:normal;text-indent:0;text-align:start;text-decoration-line:none;text-decoration-style:solid;text-decoration-color:#000;text-transform:none;block-progression:tb;isolation:auto;mix-blend-mode:normal"
          d="M 12.0625 7 C 9.3129207 6.9999998 7.0625 9.2504207 7.0625 12 C 7.0625 14.749579 9.3129207 17 12.0625 17 C 14.812079 17 17.0625 14.749579 17.0625 12 C 17.0625 9.2504209 14.812079 7 12.0625 7 z M 34.998047 7 C 32.248468 7 29.998047 9.2504209 29.998047 12 C 29.998047 14.749579 32.248468 17 34.998047 17 C 37.747626 17 39.998047 14.749579 39.998047 12 C 39.998047 9.2504209 37.747626 7 34.998047 7 z M 4.046875 19 C 3.205875 19.013 2.4368594 19.341781 1.8808594 19.925781 C 1.3338594 20.501781 1.0355 21.269156 1.0625 22.035156 C 1.1065577 23.263688 1.953588 24.556076 3.3066406 24.902344 L 6.9238281 33 L 0.99804688 33 C 0.44604687 33 -0.001953125 33.448 -0.001953125 34 C -0.001953125 34.552 0.44604687 35 0.99804688 35 L 7.8164062 35 L 12.679688 45.884766 C 11.469945 45.673331 10.057172 45.16827 9.0703125 44.261719 C 8.6893125 43.916719 8.1075625 43.916719 7.7265625 44.261719 C 6.3625625 45.514719 4.1785156 46.005859 2.8535156 46.005859 C 2.2255156 46.005859 1.7697656 45.884563 1.3847656 45.726562 C 0.86776562 45.520562 0.27926562 45.771109 0.072265625 46.287109 C -0.13473438 46.803109 0.11676562 47.389703 0.63476562 47.595703 C 1.2377656 47.842703 1.9725156 48 2.8535156 48 C 4.4145156 48 6.5698125 47.463813 8.3828125 46.132812 C 10.199813 47.477813 12.375359 48 13.943359 48 C 15.504359 48 17.630359 47.463813 19.443359 46.132812 C 21.260359 47.477813 23.435906 48 25.003906 48 C 26.571906 48 28.747453 47.476813 30.564453 46.132812 C 32.377453 47.463812 34.503453 48 36.064453 48 C 37.632453 48 39.808 47.477812 41.625 46.132812 C 43.438 47.463812 45.593297 48 47.154297 48 C 47.915297 48 48.590547 47.9195 49.185547 47.8125 C 49.729547 47.7095 50.085422 47.185531 49.982422 46.644531 C 49.879422 46.103531 49.353547 45.748562 48.810547 45.851562 C 48.295547 45.944562 47.774297 46.007812 47.154297 46.007812 C 45.829297 46.007812 43.64425 45.516672 42.28125 44.263672 C 42.14125 44.134672 41.96825 44.047672 41.78125 44.013672 C 41.47625 43.962672 41.1645 44.054719 40.9375 44.261719 C 40.132095 45.001581 39.041594 45.470076 38.009766 45.734375 A 1.0007264 1.0007264 0 0 0 37.957031 45.583984 L 33.123047 35 L 33.128906 35 L 32.501953 33.642578 L 28.554688 25 C 30.422596 24.994708 33.829611 24.994783 35.380859 24.998047 L 37.566406 29.371094 L 35.935547 28.878906 C 34.810547 28.537906 33.643062 28.914719 32.914062 29.761719 L 32.994141 29.935547 L 33.035156 30.025391 L 33.96875 32.044922 L 33.970703 32.039062 L 34.417969 33 L 34.408203 33 L 35.332031 35 L 48.998047 35 C 49.550047 35 49.998047 34.552 49.998047 34 C 49.998047 33.448 49.550047 33 48.998047 33 L 48.886719 33 L 42.730469 20.6875 C 42.215469 19.6565 41.179484 19.012906 40.021484 19.003906 C 36.207484 18.992906 26.997422 19 26.982422 19 C 26.141422 19.013 25.372406 19.341781 24.816406 19.925781 C 24.269406 20.501781 23.971047 21.269156 23.998047 22.035156 C 24.044848 23.318724 24.895354 24.602962 26.320312 24.921875 L 30.009766 33 L 25.949219 33 L 19.794922 20.6875 C 19.278922 19.6575 18.242938 19.012906 17.085938 19.003906 C 13.271938 18.992906 4.061875 19 4.046875 19 z M 12.445312 24.998047 L 14.630859 29.371094 L 13 28.878906 C 11.839 28.527906 10.634109 28.939797 9.9121094 29.841797 L 10.992188 32.136719 L 10.996094 32.128906 L 11.402344 33 L 11.398438 33 L 11.912109 34.089844 L 11.929688 34.128906 L 12.339844 35 L 30.923828 35 L 35.945312 45.996094 C 34.613764 45.970605 32.5486 45.481553 31.220703 44.261719 C 30.839703 43.916719 30.259906 43.916719 29.878906 44.261719 C 28.513906 45.514719 26.328906 46.005859 25.003906 46.005859 C 23.678906 46.005859 21.494859 45.514719 20.130859 44.261719 C 19.749859 43.916719 19.168109 43.916719 18.787109 44.261719 C 17.709434 45.25097 16.155395 45.753106 14.890625 45.925781 L 5.5410156 25 C 7.378981 24.994371 10.876311 24.994745 12.445312 24.998047 z"/>
</svg>
