<svg xmlns="http://www.w3.org/2000/svg" width="50" height="50" viewBox="0 0 50 50">
    <path d="M25,0C11.215,0,0,11.215,0,25s11.215,25,25,25s25-11.215,25-25S38.785,0,25,0z M26.506,36.935 c0,0.215-0.144,0.359-0.359,0.359h-2.295c-0.215,0-0.358-0.144-0.358-0.359V20.473c0-0.215,0.144-0.359,0.358-0.359h2.295 c0.216,0,0.359,0.144,0.359,0.359V36.935z M26.578,15.882c0,0.215-0.145,0.359-0.359,0.359h-2.439c-0.216,0-0.357-0.144-0.357-0.359 v-2.618c0-0.215,0.142-0.359,0.357-0.359h2.439c0.215,0,0.359,0.144,0.359,0.359V15.882z"/>
</svg>