<svg xmlns="http://www.w3.org/2000/svg" viewBox="0 0 50 50" width="50" height="50">
    <path d="M 38.265625 1.9726562 C 37.23562 1.9977783 36.699219 2.4003906 36.699219 2.4003906 L 12.464844 26.734375 C 11.864844 27.334375 11.864844 28.335547 12.464844 28.935547 L 21.064453 37.535156 C 21.664453 38.135156 22.665625 38.135156 23.265625 37.535156 L 47.599609 13.300781 C 47.599609 13.300781 49.699609 10.500391 44.599609 5.4003906 C 41.730859 2.5316406 39.589917 1.9403564 38.265625 1.9726562 z M 13.5 2 C 13.099 2 12.709031 2.0459531 12.332031 2.1269531 C 11.638031 3.0459531 11.251344 5.8724531 13.402344 7.9394531 C 15.456344 9.9154531 17.853547 9.8194063 18.685547 9.3164062 C 18.884547 8.7474062 19 8.138 19 7.5 C 19 4.467 16.533 2 13.5 2 z M 10.101562 3.1835938 C 8.8245625 4.1915938 8 5.749 8 7.5 C 8 10.533 10.467 13 13.5 13 C 15.091 13 16.523297 12.316422 17.529297 11.232422 C 17.254297 11.246422 16.978938 11.253906 16.710938 11.253906 C 15.249937 11.253906 13.639859 10.712719 12.130859 9.2617188 C 10.243859 7.4477187 9.7915625 5.1365937 10.101562 3.1835938 z M 12.007812 31.693359 L 12.007812 32.792969 C 12.007812 33.892969 11.506641 34.89375 10.806641 35.59375 L 2.4003906 44 C 1.8003906 44.6 1.8003906 45.700781 2.4003906 46.300781 L 3.6992188 47.599609 C 4.2992187 48.199609 5.4 48.199609 6 47.599609 L 14.40625 39.193359 C 15.20625 38.393359 16.206641 37.992188 17.306641 37.992188 L 18.40625 37.992188 L 12.007812 31.693359 z"/>
</svg>