<svg xmlns="http://www.w3.org/2000/svg" viewBox="0 0 50 50" width="50" height="50">
    <path d="M 6.7265625 4.0117188 C 6.3385156 4.0467656 5.9521406 4.1580156 5.5878906 4.3535156 C 5.3244331 4.4940015 5.0966252 4.679844 4.890625 4.8847656 C 4.2419369 4.918256 3.5923695 4.9525762 2.9257812 5.0019531 L 3.0742188 6.9980469 C 3.3936225 6.9743873 3.6990875 6.9613934 4.0136719 6.9414062 C 4.0031018 7.4492482 4.1079613 7.9535667 4.3535156 8.4140625 L 12.181641 23.060547 C 12.190641 23.078547 13 24.922 13 29 L 13 29.322266 L 10.375 36.451172 L 4.7226562 43.048828 C 4.2016563 43.656828 3.9487656 44.430469 4.0097656 45.230469 C 4.0717656 46.029469 4.439875 46.756344 5.046875 47.277344 C 5.590875 47.742344 6.2820469 48 6.9980469 48 C 7.8750469 48 8.7063438 47.617172 9.2773438 46.951172 L 15.277344 39.951172 C 15.506344 39.684172 15.684594 39.383688 15.808594 39.054688 L 18.205078 32.675781 C 19.045078 32.466781 20.845625 32.036922 22.390625 31.669922 L 23.019531 37.330078 C 23.108531 38.132078 23.505719 38.850563 24.136719 39.351562 C 24.762719 39.849562 25.541078 40.070469 26.330078 39.980469 C 27.127078 39.892469 27.84275 39.499047 28.34375 38.873047 C 28.84375 38.247047 29.068469 37.465922 28.980469 36.669922 L 27.980469 27.669922 C 27.886469 26.823922 27.435141 26.054547 26.744141 25.560547 C 26.050141 25.064547 25.176609 24.888266 24.349609 25.072266 L 20.880859 25.84375 C 20.690859 23.43175 20.261172 21.580937 19.576172 20.210938 C 19.291382 19.642707 18.87355 19.169426 18.378906 18.804688 A 5 5 0 0 0 22 14 A 5 5 0 0 0 17 9 A 5 5 0 0 0 12.744141 11.386719 L 10.289062 6.7910156 C 14.30168 6.8819652 17.847814 7.3691398 20.992188 8.2714844 C 22.164888 9.0938168 23.080234 10.260558 23.576172 11.630859 L 24.576172 9.5585938 C 27.329463 10.771636 29.724254 12.388317 31.792969 14.457031 C 38.03007 20.694133 41.513514 31.196237 43.003906 47.09375 L 44.996094 46.90625 C 43.486486 30.803763 39.96993 19.805867 33.207031 13.042969 C 30.847508 10.683445 28.1038 8.8749214 24.958984 7.5546875 C 24.924538 7.3283979 24.872397 7.1045267 24.785156 6.8867188 C 24.487156 6.1427188 23.917641 5.5601406 23.181641 5.2441406 C 22.442641 4.9281406 21.627766 4.9177969 20.884766 5.2167969 C 20.486706 5.3762346 20.139108 5.6172035 19.849609 5.9160156 C 17.561805 5.3831122 15.104797 5.0402973 12.462891 4.8808594 C 11.346758 4.8135013 10.187143 4.7872836 9.0058594 4.7832031 C 8.3840314 4.2216489 7.556603 3.9367527 6.7265625 4.0117188 z"/>
</svg>