<svg xmlns="http://www.w3.org/2000/svg" viewBox="0 0 50 50" width="50" height="50">
    <path d="M 28 9 A 1.0001 1.0001 0 1 0 28 11 L 30.337891 11 C 30.366358 11.067343 30.697391 11.847811 30.761719 12 L 29.453125 12 C 28.320562 12 27.209336 12.308706 26.238281 12.890625 L 22.722656 15 L 6 15 A 1.0001 1.0001 0 1 0 6 17 L 9.6679688 17 L 10.859375 18.787109 L 17 21 L 19.578125 20.759766 L 16.761719 25.503906 L 16.1875 25.761719 C 16.171508 25.734597 16.160838 25.704675 16.144531 25.677734 L 15.833984 25.865234 C 15.635552 25.538867 15.421266 25.223447 15.179688 24.929688 L 15.455078 24.703125 C 14.950078 24.088125 14.358219 23.550562 13.699219 23.101562 L 13.5 23.394531 C 13.186255 23.179883 12.855158 22.993213 12.511719 22.824219 L 12.669922 22.501953 C 11.952922 22.150953 11.192203 21.904531 10.408203 21.769531 L 10.347656 22.123047 C 9.9764911 22.059524 9.5973698 22.01994 9.2109375 22.009766 L 9.2207031 21.652344 C 8.4287031 21.631344 7.6352812 21.725688 6.8632812 21.929688 L 6.9550781 22.275391 C 6.584116 22.373942 6.221024 22.49198 5.8730469 22.640625 L 5.734375 22.314453 C 4.999375 22.625453 4.3132656 23.040875 3.6972656 23.546875 L 3.9257812 23.824219 C 3.6316953 24.066399 3.360412 24.334235 3.1035156 24.615234 L 2.8320312 24.369141 C 2.2960312 24.957141 1.8460938 25.617984 1.4960938 26.333984 L 1.8222656 26.494141 C 1.6557124 26.833275 1.5084202 27.18309 1.390625 27.546875 L 1.0507812 27.4375 C 0.80478125 28.1975 0.67039062 28.987203 0.65039062 29.783203 L 1.0097656 29.792969 C 1.0079718 29.862377 1 29.930172 1 30 C 1 30.316085 1.0226381 30.6269 1.0585938 30.933594 L 0.703125 30.974609 C 0.749125 31.363609 0.82478125 31.754719 0.92578125 32.136719 C 1.0277812 32.522719 1.1594531 32.904531 1.3144531 33.269531 L 1.640625 33.130859 C 1.7912422 33.483022 1.9742716 33.816357 2.171875 34.140625 L 1.8574219 34.332031 C 2.2704219 35.013031 2.7781406 35.631922 3.3691406 36.169922 L 3.6171875 35.898438 C 3.8971724 36.154231 4.1917813 36.394902 4.5058594 36.609375 L 4.3046875 36.90625 C 4.9636875 37.35425 5.6805 37.705219 6.4375 37.949219 L 6.546875 37.609375 C 6.9060374 37.725673 7.2771546 37.81423 7.65625 37.878906 L 7.5957031 38.234375 C 8.3817031 38.368375 9.1826094 38.389922 9.9746094 38.294922 L 9.9316406 37.941406 C 10.314148 37.896657 10.686461 37.819746 11.050781 37.722656 L 11.142578 38.072266 C 11.915578 37.866266 12.651078 37.554578 13.330078 37.142578 L 13.140625 36.830078 C 13.467585 36.630891 13.783962 36.416335 14.078125 36.173828 L 14.304688 36.451172 C 14.918688 35.945172 15.45825 35.354359 15.90625 34.693359 L 15.611328 34.494141 C 15.825593 34.180271 16.009125 33.847419 16.177734 33.503906 L 16.503906 33.662109 C 16.853906 32.945109 17.099422 32.185391 17.232422 31.400391 L 16.878906 31.339844 C 16.942045 30.968675 16.980436 30.589524 16.990234 30.203125 L 17.347656 30.212891 C 17.353798 29.970887 17.329569 29.729967 17.314453 29.488281 L 20 29 L 25 31 L 26 31 C 27.657 31 29 29.657 29 28 L 29 23.962891 C 28.789 23.985891 28.570797 24 28.341797 24 C 26.513797 24 25.002 23.414625 24 22.890625 L 24 26 L 19.472656 24.859375 L 21.791016 20.953125 A 1.0001 1.0001 0 0 0 21.931641 20.541016 L 24 20.349609 C 24 20.349609 25.607797 22 28.341797 22 C 28.678797 22 28.983578 21.955719 29.267578 21.886719 C 29.953175 21.570088 31.852427 20.529096 33.365234 18.138672 C 33.542156 18.554988 33.541644 18.557577 33.726562 18.992188 C 34.416623 20.61402 35.059023 22.11158 35.685547 23.572266 C 35.330524 23.864858 34.994919 24.176731 34.693359 24.523438 L 34.96875 24.763672 C 34.719515 25.050251 34.490247 25.353842 34.283203 25.673828 L 33.978516 25.478516 C 33.548516 26.147516 33.215234 26.875625 32.990234 27.640625 L 33.332031 27.740234 C 33.224898 28.10236 33.146844 28.476177 33.091797 28.857422 L 32.734375 28.804688 C 32.619375 29.593687 32.618469 30.393641 32.730469 31.181641 L 33.089844 31.130859 C 33.144214 31.511442 33.221851 31.8845 33.328125 32.246094 L 32.982422 32.347656 C 33.205422 33.107656 33.53775 33.835813 33.96875 34.507812 L 34.275391 34.310547 C 34.482143 34.631608 34.709819 34.937017 34.958984 35.224609 L 34.681641 35.464844 C 35.202641 36.068844 35.807516 36.593391 36.478516 37.025391 L 36.675781 36.716797 C 36.994717 36.923067 37.328054 37.105645 37.675781 37.265625 L 37.525391 37.595703 C 38.249391 37.925703 39.016687 38.151625 39.804688 38.265625 L 39.857422 37.908203 C 40.229063 37.961864 40.606168 37.999624 40.992188 38 L 40.992188 38.353516 C 41.791187 38.354516 42.583656 38.241578 43.347656 38.017578 L 43.246094 37.671875 C 43.615012 37.563448 43.971474 37.427766 44.316406 37.269531 L 44.466797 37.597656 C 44.823797 37.434656 45.171906 37.24425 45.503906 37.03125 C 45.839906 36.81525 46.164844 36.573453 46.464844 36.314453 L 46.226562 36.039062 C 46.513908 35.789939 46.783738 35.521416 47.033203 35.234375 L 47.308594 35.472656 C 47.830594 34.870656 48.26275 34.197703 48.59375 33.470703 L 48.267578 33.322266 C 48.425822 32.978013 48.561305 32.622095 48.669922 32.253906 L 49.011719 32.353516 C 49.235719 31.588516 49.348609 30.798906 49.349609 30.003906 L 49 30.003906 C 49.000001 30.002592 49 30.001314 49 30 C 49 29.614019 48.963433 29.236872 48.910156 28.865234 L 49.265625 28.814453 C 49.152625 28.025453 48.927703 27.25625 48.595703 26.53125 L 48.267578 26.681641 C 48.107992 26.334064 47.926526 26.000499 47.720703 25.681641 L 48.023438 25.486328 C 47.591437 24.813328 47.06775 24.209453 46.46875 23.689453 L 46.230469 23.962891 C 45.943273 23.713635 45.639011 23.484267 45.318359 23.277344 L 45.511719 22.974609 C 44.841719 22.544609 44.113656 22.214234 43.347656 21.990234 L 43.248047 22.328125 C 42.887099 22.221948 42.514649 22.144303 42.134766 22.089844 L 42.185547 21.736328 C 41.395547 21.622328 40.595594 21.621375 39.808594 21.734375 L 39.859375 22.089844 C 39.47816 22.144778 39.104298 22.223067 38.742188 22.330078 L 38.640625 21.988281 C 38.210886 22.115043 37.797134 22.286028 37.392578 22.480469 C 36.799678 21.096913 36.210341 19.722411 35.566406 18.208984 C 35.52117 18.102666 35.523631 18.10607 35.478516 18 L 41 18 A 1.0001 1.0001 0 1 0 41 16 L 34.630859 16 C 33.360896 13.006155 31.921875 9.6113281 31.921875 9.6113281 A 1.0001 1.0001 0 0 0 31 9 L 28 9 z M 9 24 C 11.116929 24 12.96586 25.086884 14.033203 26.732422 L 10.248047 28.4375 A 2 2 0 0 0 9 28 A 2 2 0 0 0 7 30 A 2 2 0 0 0 9 32 A 2 2 0 0 0 10.886719 30.65625 L 14.996094 29.910156 C 14.996537 29.940387 15 29.969659 15 30 C 15 33.325553 12.325553 36 9 36 C 5.6744469 36 3 33.325553 3 30 C 3 26.674447 5.6744469 24 9 24 z M 41 24 C 44.325553 24 47 26.674447 47 30 C 47 33.325553 44.325553 36 41 36 C 37.674447 36 35 33.325553 35 30 C 35 28.383809 35.634921 26.924031 36.666016 25.847656 C 37.203462 27.093903 37.703973 28.257832 37.882812 28.615234 C 38.179932 29.209311 38.587691 29.655093 39 30 A 2 2 0 0 0 41 32 A 2 2 0 0 0 43 30 A 2 2 0 0 0 41 28 A 2 2 0 0 0 40.058594 28.236328 C 39.906926 28.083737 39.768572 27.914243 39.671875 27.720703 A 1.0001 1.0001 0 0 0 39.671875 27.71875 C 39.578782 27.532752 38.995912 26.208215 38.316406 24.634766 C 39.123714 24.23205 40.032744 24 41 24 z"/>
</svg>