<svg xmlns="http://www.w3.org/2000/svg" viewBox="0 0 50 50" width="50" height="50">
    <path d="M 36.414062 4.0019531 C 35.901812 4.0019531 35.3895 4.1959375 35 4.5859375 L 33.302734 6.2832031 L 43.716797 16.697266 L 45.414062 15 C 45.792063 14.622 46 14.119937 46 13.585938 C 46 13.050937 45.792062 12.548875 45.414062 12.171875 L 43.828125 10.585938 L 39.414062 6.171875 L 37.828125 4.5859375 C 37.438625 4.1959375 36.926313 4.0019531 36.414062 4.0019531 z M 42.830078 4.0292969 C 42.052578 4.0290469 41.274031 4.3114063 40.707031 4.8789062 L 40.667969 4.9179688 L 45.082031 9.3320312 L 45.121094 9.2929688 C 46.291094 8.1239687 46.290141 6.2198281 45.119141 5.0488281 L 44.949219 4.8789062 C 44.383219 4.3124063 43.607578 4.0295469 42.830078 4.0292969 z M 28.550781 4.9648438 C 28.038531 4.9648438 27.526219 5.1607812 27.136719 5.5507812 L 26.050781 6.6347656 C 25.270781 7.4147656 25.270781 8.6848437 26.050781 9.4648438 L 40.513672 23.927734 C 40.891672 24.304734 41.393734 24.511719 41.927734 24.511719 C 42.462734 24.511719 42.964797 24.304734 43.341797 23.927734 L 44.427734 22.841797 C 44.805734 22.463797 45.013672 21.961734 45.013672 21.427734 C 45.013672 20.892734 44.805734 20.390672 44.427734 20.013672 L 42.535156 18.121094 L 31.34375 6.9296875 L 29.964844 5.5507812 C 29.575344 5.1607812 29.063031 4.9648437 28.550781 4.9648438 z M 30.292969 16.292969 L 26 20.585938 L 18.585938 28 L 16.292969 30.292969 L 19.707031 33.707031 L 22 31.414062 L 29.414062 24 L 33.707031 19.707031 L 30.292969 16.292969 z M 8.0722656 25.507812 C 7.5540156 25.508187 7.0352031 25.695766 6.6582031 26.072266 L 5.5722656 27.158203 C 5.1942656 27.536203 4.9863281 28.038266 4.9863281 28.572266 C 4.9863281 29.107266 5.1942656 29.609328 5.5722656 29.986328 L 7.5859375 32 L 18 42.414062 L 18.048828 42.462891 L 18.65625 43.070312 L 20.035156 44.449219 C 20.425156 44.839219 20.937219 45.035156 21.449219 45.035156 C 21.961219 45.035156 22.473281 44.839219 22.863281 44.449219 L 23.949219 43.365234 C 24.729219 42.585234 24.729219 41.315156 23.949219 40.535156 L 9.4863281 26.072266 C 9.1083281 25.694266 8.5905156 25.507438 8.0722656 25.507812 z M 6.2832031 33.302734 L 4.5859375 35 C 4.2079375 35.378 4 35.880062 4 36.414062 C 4 36.949062 4.2079375 37.451125 4.5859375 37.828125 L 6.171875 39.414062 L 10.585938 43.828125 L 12.171875 45.414062 C 12.561875 45.804063 13.073938 45.998047 13.585938 45.998047 C 14.097938 45.998047 14.61 45.804062 15 45.414062 L 16.697266 43.716797 L 6.2832031 33.302734 z M 4.9179688 40.667969 L 4.8789062 40.707031 C 3.7089063 41.876031 3.7098594 43.780172 4.8808594 44.951172 L 5.0507812 45.121094 C 5.6167812 45.688094 6.369875 46 7.171875 46 C 7.972875 46 8.7269688 45.688094 9.2929688 45.121094 L 9.3320312 45.082031 L 4.9179688 40.667969 z"/>
</svg>